<?xml version="1.0" standalone="no"?>
<!DOCTYPE svg PUBLIC "-//W3C//DTD SVG 1.1//EN" "http://www.w3.org/Graphics/SVG/1.1/DTD/svg11.dtd" >
<svg xmlns="http://www.w3.org/2000/svg">
<metadata></metadata>
<defs>
<font id="webfontregular" horiz-adv-x="1212" >
<font-face units-per-em="2048" ascent="1583" descent="-465" />
<missing-glyph horiz-adv-x="460" />
<glyph horiz-adv-x="2048" />
<glyph horiz-adv-x="2048" />
<glyph horiz-adv-x="460" />
<glyph unicode=" "  horiz-adv-x="460" />
<glyph unicode="&#x09;" horiz-adv-x="460" />
<glyph unicode="&#xa0;" horiz-adv-x="460" />
<glyph unicode="!" horiz-adv-x="634" d="M203 111q0 42 33 73q33 35 86 35q45 0 77 -35q31 -33 31 -73q0 -47 -31 -82t-77 -35q-53 0 -86 35t-33 82zM229 440v994h174v-994h-174z" />
<glyph unicode="&#x22;" horiz-adv-x="849" d="M174 977v457h164v-457h-164zM512 977v457h164v-457h-164z" />
<glyph unicode="#" horiz-adv-x="1441" d="M82 399v144h235l129 348h-364v143h418l155 420l129 -47l-139 -373h377l156 420l129 -45l-140 -375h193v-143h-246l-129 -348h375v-144h-428l-156 -419l-127 45l137 374h-376l-156 -419l-129 45l139 374h-182zM463 543h377l129 348h-377z" />
<glyph unicode="$" d="M156 195l100 118q129 -170 354 -170q117 0 191 58q80 61 80 166q0 114 -109 192q-53 37 -242 117q-168 72 -241 141q-109 102 -109 262q0 141 94 242q98 102 263 127v170h163v-168q207 -25 318 -145l-94 -131q-117 117 -291 116q-127 0 -199 -57q-70 -57 -69 -154 q0 -117 108 -192q51 -33 242 -113q168 -68 241 -137q109 -104 109 -268q0 -152 -102 -256q-100 -102 -263 -125v-193h-163v189q-287 33 -381 211z" />
<glyph unicode="%" horiz-adv-x="1796" d="M92 1100q1 154 107 250q104 96 268 96t268 -96q106 -96 107 -250q0 -154 -107 -252q-106 -96 -268 -96t-268 96q-106 98 -107 252zM246 1100q-1 -97 67 -156q63 -59 154 -59q92 0 156 59q66 59 65 156q0 94 -65 155q-63 57 -156 58q-92 0 -156 -58q-66 -61 -65 -155z M326 47l1052 1407l95 -70l-1051 -1404zM954 336q1 154 107 250q104 96 268 96t268 -96q106 -96 107 -250q0 -154 -107 -252q-106 -96 -268 -96t-268 96q-106 98 -107 252zM1108 336q0 -97 68 -156q63 -59 153 -59q92 0 156 59q66 59 65 156q0 94 -65 156q-63 57 -156 57 q-92 0 -155 -57q-66 -61 -66 -156z" />
<glyph unicode="&#x26;" horiz-adv-x="1523" d="M143 389q0 268 340 498q-190 63 -190 270q0 129 96 215q90 82 219 82t221 -82q96 -84 97 -215q0 -98 -64 -178q-61 -78 -149 -94l348 -449q119 209 119 486h161q0 -358 -180 -617l240 -305h-205l-149 188q-162 -209 -441 -208q-203 0 -334 116q-129 115 -129 293z M328 422q0 -121 84 -201q82 -78 198 -78q217 0 336 176l-358 472q-260 -197 -260 -369zM446 1157q1 -66 48 -115q47 -47 114 -47q70 0 117 47q47 49 47 115q0 68 -47 117q-49 47 -117 47t-114 -47q-47 -47 -48 -117z" />
<glyph unicode="'" horiz-adv-x="512" d="M174 977v457h164v-457h-164z" />
<glyph unicode="(" horiz-adv-x="600" d="M82 461q0 508 416 882l102 -90q-354 -338 -354 -792q0 -477 354 -793l-104 -90q-414 356 -414 883z" />
<glyph unicode=")" horiz-adv-x="600" d="M0 -332q354 315 354 793q0 455 -354 792l102 90q416 -375 416 -882q0 -526 -414 -883z" />
<glyph unicode="*" horiz-adv-x="980" d="M145 924q0 44 31 75t74 31q45 0 76 -31t30 -75q0 -45 -30 -76q-31 -33 -76 -33q-43 0 -74 33q-31 31 -31 76zM145 1196q0 45 31 76q31 33 74 33q45 0 76 -33q31 -31 30 -76q0 -43 -30 -74q-31 -33 -76 -32q-43 0 -74 32q-31 31 -31 74zM383 768q0 45 33 78q31 33 73 33 q43 0 76 -33t33 -78q0 -41 -33 -74t-76 -32q-41 0 -73 32q-33 33 -33 74zM387 1346q0 42 31 75q33 31 74 31q45 0 77 -31q31 -33 31 -75q0 -45 -31 -74q-31 -31 -77 -31q-43 0 -74 31t-31 74zM625 924q-1 44 30 75q29 31 72 31q45 0 76 -31q33 -31 33 -75q0 -45 -33 -76 q-31 -33 -76 -33q-43 0 -72 33q-31 31 -30 76zM625 1196q-1 45 30 76q29 33 72 33q45 0 76 -33q33 -31 33 -76q0 -43 -33 -74q-31 -33 -76 -32q-43 0 -72 32q-31 31 -30 74z" />
<glyph unicode="+" d="M141 666v143h385v391h154v-391h391v-143h-391v-396h-154v396h-385z" />
<glyph unicode="," horiz-adv-x="456" d="M104 -221q106 35 132 137q16 70 -3 102q-12 -18 -45 -18q-31 0 -53 27q-25 29 -24 67q-1 109 116 109q66 0 107 -53q41 -55 41 -146q0 -238 -225 -303z" />
<glyph unicode="-" horiz-adv-x="796" d="M154 481v154h489v-154h-489z" />
<glyph unicode="." horiz-adv-x="430" d="M102 111q0 42 31 73q35 35 86 35q45 0 78 -35q31 -33 31 -73q0 -47 -31 -82t-78 -35q-51 0 -86 35q-31 35 -31 82z" />
<glyph unicode="/" horiz-adv-x="686" d="M-61 -379l682 1833l127 -47l-680 -1833z" />
<glyph unicode="0" horiz-adv-x="1155" d="M113 717q-1 338 110 528q121 205 355 205q233 0 354 -205q111 -190 110 -528q0 -340 -108 -529q-119 -205 -352 -204q-233 0 -357 204q-113 190 -112 529zM287 717q0 -580 295 -580q287 0 286 580q0 580 -290 579q-291 0 -291 -579z" />
<glyph unicode="1" horiz-adv-x="776" d="M72 1176l344 266h114v-1442h-163v1206l-209 -164z" />
<glyph unicode="2" horiz-adv-x="1079" d="M92 0v133q289 285 408 432q233 291 233 490q0 100 -57 164q-63 68 -176 67q-92 0 -160 -57q-76 -61 -96 -172l-140 57q25 156 144 248q111 88 266 88q188 0 297 -115q96 -100 96 -248q0 -408 -602 -933h662v-154h-875z" />
<glyph unicode="3" horiz-adv-x="1089" d="M72 225l94 117q106 -199 334 -199q131 0 209 74q74 72 73 184q0 115 -82 183q-80 68 -211 67h-112v164h102q98 0 172 70q76 72 76 178t-61 166q-63 61 -172 61q-193 0 -295 -178l-93 113q102 229 400 229q180 0 287 -96q109 -98 108 -266q0 -250 -223 -344v-7 q129 -20 207 -120q72 -94 71 -226q0 -188 -129 -303q-125 -113 -321 -112q-321 -1 -434 245z" />
<glyph unicode="4" horiz-adv-x="1126" d="M41 358v117l594 959h188l-567 -912h446v400h164v-400h199v-164h-199v-358h-164v358h-661z" />
<glyph unicode="5" horiz-adv-x="1056" d="M72 197l94 120q109 -174 321 -174q123 0 207 86q82 86 82 217t-94 218q-96 86 -254 86q-131 0 -225 -37l90 721h647v-164h-504l-53 -387q53 14 115 14q199 0 323 -121q129 -123 129 -323q0 -215 -137 -349q-133 -125 -330 -124q-287 0 -411 217z" />
<glyph unicode="6" horiz-adv-x="1134" d="M102 508q1 367 230 643q201 242 467 303l67 -125q-205 -53 -356 -211q-170 -174 -215 -426q100 190 338 191q178 0 293 -123q117 -123 116 -318q0 -203 -137 -338q-129 -125 -305 -124q-231 0 -369 157q-129 147 -129 371zM276 508q0 -156 80 -256q88 -109 242 -109 q117 0 195 86q76 84 75 201q0 131 -73 211q-78 88 -217 88q-115 0 -201 -74q-72 -59 -101 -147z" />
<glyph unicode="7" horiz-adv-x="993" d="M61 1270v164h861v-107l-529 -1327h-180l510 1270h-662z" />
<glyph unicode="8" horiz-adv-x="1218" d="M133 371q0 131 76 231q74 96 194 131v6q-96 33 -159 127q-66 96 -66 213q0 166 127 273q121 102 303 102t305 -102q127 -106 127 -273q0 -106 -61 -198q-66 -96 -174 -140v-6q121 -20 199 -114q82 -98 81 -238q0 -186 -141 -297q-133 -106 -334 -106t-336 104 q-141 109 -141 287zM307 401q0 -113 86 -184q84 -74 215 -74q137 0 221 72q82 70 82 186q-2 117 -82 189q-78 66 -194 65h-45q-117 0 -199 -71q-84 -72 -84 -183zM352 1055q0 -96 70 -166t162 -70h53q92 0 160 70q70 70 69 166q0 109 -78 174q-74 61 -182 61 q-109 0 -180 -63q-74 -68 -74 -172z" />
<glyph unicode="9" horiz-adv-x="1128" d="M82 991q0 203 145 338q133 125 312 125q231 0 364 -156q123 -145 123 -383q0 -395 -207 -651q-197 -246 -510 -284l-55 129q242 47 393 206q154 162 187 414q-96 -178 -324 -178q-186 0 -307 127q-121 125 -121 313zM256 1004q0 -125 76 -207q82 -92 219 -92 q117 0 201 67q72 57 100 143q0 159 -76 261q-84 115 -235 114q-117 0 -201 -86q-84 -84 -84 -200z" />
<glyph unicode=":" horiz-adv-x="655" d="M215 111q0 42 31 73q35 35 86 35q45 0 78 -35q31 -33 30 -73q0 -47 -30 -82q-31 -35 -78 -35q-51 0 -86 35q-31 35 -31 82zM215 831q0 43 31 74q35 35 86 35q45 0 78 -35q31 -33 30 -74q0 -47 -30 -81q-31 -35 -78 -35q-51 0 -86 35q-31 35 -31 81z" />
<glyph unicode=";" horiz-adv-x="663" d="M209 -221q106 35 131 137q16 70 -2 102q-12 -18 -45 -18q-31 0 -53 27q-25 29 -25 67q0 109 117 109q66 0 106 -53q41 -55 41 -146q0 -238 -225 -303zM215 831q0 43 31 74q35 35 86 35q45 0 78 -35q31 -33 30 -74q0 -47 -30 -81q-31 -35 -78 -35q-51 0 -86 35 q-31 35 -31 81z" />
<glyph unicode="&#x3c;" d="M117 707v69l901 541v-178l-674 -398l674 -401v-178z" />
<glyph unicode="=" d="M141 481v144h930v-144h-930zM141 850v143h930v-143h-930z" />
<glyph unicode="&#x3e;" d="M195 162v178l673 401l-673 398v178l899 -541v-69z" />
<glyph unicode="?" horiz-adv-x="954" d="M82 1247q129 207 395 207q193 0 307 -104q109 -100 109 -250q0 -209 -217 -377q-106 -82 -139 -127q-55 -76 -37 -180l-148 -2q-39 205 156 352q113 86 141 119q68 78 68 180q0 94 -70 160q-72 66 -180 65q-176 0 -287 -151zM311 111q0 42 33 73q33 35 86 35q45 0 78 -35 q31 -33 31 -73q0 -47 -31 -82t-78 -35q-53 0 -86 35t-33 82z" />
<glyph unicode="@" horiz-adv-x="2060" d="M133 461q0 379 260 637q262 260 658 260q379 0 626 -223q250 -225 250 -580q0 -225 -119 -381q-131 -174 -352 -174h-170v96q-117 -117 -285 -116q-209 0 -331 131q-125 131 -125 350q0 203 145 342q150 139 373 139q221 0 387 -104v-684h43q127 0 205 114q76 113 76 285 q0 279 -199 463q-205 188 -524 188q-328 0 -543 -205q-221 -211 -221 -538q0 -317 221 -531q219 -213 543 -213q117 0 221 25l10 -152q-119 -27 -231 -26q-397 0 -658 256q-260 256 -260 641zM719 453q0 -147 86 -236q84 -84 223 -84q154 0 258 121v475q-104 59 -225 59 q-152 0 -248 -98q-94 -96 -94 -237z" />
<glyph unicode="A" horiz-adv-x="1443" d="M31 0l616 1442h150l616 -1442h-186l-185 434h-653l-182 -434h-176zM459 598h516l-258 612z" />
<glyph unicode="B" horiz-adv-x="1263" d="M215 2v1430q319 8 393 8q461 0 461 -355q0 -252 -246 -331v-4q297 -47 297 -340q0 -209 -149 -318q-135 -98 -371 -98q-217 0 -385 8zM389 166q94 -8 221 -8q336 0 336 262q0 233 -325 233h-232v-487zM389 807h229q119 0 195 61q82 66 82 179q0 229 -291 229 q-61 0 -215 -6v-463z" />
<glyph unicode="C" horiz-adv-x="1343" d="M102 717q0 317 189 522q199 215 526 215q274 0 436 -139l-79 -131q-143 106 -355 106q-233 0 -383 -160t-149 -413q0 -256 155 -416q154 -158 404 -158q211 0 366 127l70 -131q-155 -159 -449 -159h-4q-324 0 -524 200q-203 203 -203 537z" />
<glyph unicode="D" horiz-adv-x="1513" d="M215 0v1434l391 6q406 0 619 -211q186 -188 186 -494q0 -322 -205 -522q-223 -217 -616 -217zM389 164l207 -4q299 0 469 162q162 156 162 413q0 242 -156 387q-168 154 -469 154l-213 -6v-1106z" />
<glyph unicode="E" horiz-adv-x="1177" d="M215 0v1434h809v-164h-635v-463h574v-164h-574v-479h655v-164h-829z" />
<glyph unicode="F" horiz-adv-x="1105" d="M215 0v1434h809v-164h-635v-508h574v-164h-574v-598h-174z" />
<glyph unicode="G" horiz-adv-x="1488" d="M102 717q0 315 193 522q197 215 512 215q274 0 450 -139l-75 -139q-126 114 -351 114h-4q-242 0 -389 -157q-152 -158 -151 -416q0 -260 151 -418q150 -156 396 -156q238 0 368 127v295h-387v164h551v-551q-198 -198 -534 -198h-3q-334 0 -530 200q-197 201 -197 537z " />
<glyph unicode="H" horiz-adv-x="1566" d="M215 0v1434h174v-621h789v621h174v-1434h-174v649h-789v-649h-174z" />
<glyph unicode="I" horiz-adv-x="686" d="M256 0v1434h174v-1434h-174z" />
<glyph unicode="J" horiz-adv-x="765" d="M20 55l60 133q59 -45 135 -45q162 0 162 211v1080h174v-1108q0 -346 -313 -346q-141 0 -218 75z" />
<glyph unicode="K" horiz-adv-x="1337" d="M215 0v1434h174v-1434h-174zM424 748l629 686h211l-639 -674l671 -760h-223z" />
<glyph unicode="L" horiz-adv-x="1126" d="M215 0v1434h174v-1270h707v-164h-881z" />
<glyph unicode="M" horiz-adv-x="1826" d="M215 0v1434h176l539 -736l516 736h166v-1434h-174v1159l-508 -713h-27l-514 707v-1153h-174z" />
<glyph unicode="N" horiz-adv-x="1628" d="M215 0v1434h139l895 -1131v1131h164v-1434h-139l-895 1126v-1126h-164z" />
<glyph unicode="O" horiz-adv-x="1667" d="M102 717q0 313 207 524q207 213 525 213q315 0 522 -205q209 -209 209 -532q0 -317 -209 -529q-208 -208 -519 -208h-3q-315 0 -523 204q-209 209 -209 533zM287 717q-1 -244 157 -410q158 -164 390 -164q242 0 397 166q150 162 149 408q0 248 -157 411 q-158 162 -389 162q-236 0 -390 -162q-158 -162 -157 -411z" />
<glyph unicode="P" horiz-adv-x="1222" d="M215 0v1434l375 4q283 0 420 -140q110 -112 110 -302q0 -191 -127 -316q-141 -137 -389 -137q-119 0 -215 8v-551h-174zM389 717q117 -10 209 -10q158 0 248 77q90 76 90 211q0 279 -330 279q-82 0 -217 -4v-553z" />
<glyph unicode="Q" horiz-adv-x="1667" d="M102 717q0 313 207 524q207 213 525 213q315 0 522 -205q209 -209 209 -532q0 -322 -215 -533l157 -184h-204l-76 88q-174 -108 -389 -108h-4q-315 0 -523 204q-209 209 -209 533zM287 717q-1 -244 157 -410q158 -164 390 -164q158 0 282 74l-125 150l115 104l131 -154 q143 164 143 400q0 248 -157 411q-158 162 -389 162q-236 0 -390 -162q-158 -162 -157 -411z" />
<glyph unicode="R" horiz-adv-x="1316" d="M215 0v1434l385 4q510 0 510 -426q0 -158 -96 -271q-86 -102 -215 -135l477 -606h-213l-440 573h-234v-573h-174zM389 737h211q131 0 225 72q100 78 101 201q0 264 -336 264q-66 0 -201 -4v-533z" />
<glyph unicode="S" horiz-adv-x="1124" d="M102 195l101 118q129 -170 354 -170q119 0 197 58q84 61 84 166q0 114 -109 192q-53 37 -242 117q-168 72 -241 141q-109 102 -109 262t115 264q119 111 317 111q260 0 396 -149l-95 -131q-116 116 -287 116h-3q-119 0 -189 -57t-69 -154q0 -117 108 -192 q51 -33 242 -113q168 -68 241 -137q109 -104 109 -268q0 -174 -135 -283q-133 -106 -332 -106q-139 0 -266 57q-135 59 -187 158z" />
<glyph unicode="T" horiz-adv-x="1218" d="M20 1270v164h1178v-164h-502v-1270h-174v1270h-502z" />
<glyph unicode="U" horiz-adv-x="1538" d="M195 612v822h174v-789q0 -236 108 -366q111 -133 311 -134q180 0 279 121q102 127 102 367v801h174v-836q0 -309 -167 -473q-147 -143 -388 -143q-268 0 -426 157q-168 168 -167 473z" />
<glyph unicode="V" horiz-adv-x="1343" d="M10 1434h187l487 -1180l473 1180h176l-590 -1442h-129z" />
<glyph unicode="W" horiz-adv-x="1986" d="M20 1434h197l334 -1141l371 1141h168l380 -1141l326 1141h170l-414 -1434h-159l-394 1153l-385 -1153h-159z" />
<glyph unicode="X" horiz-adv-x="1359" d="M41 0l526 729l-504 705h205l416 -574l410 574h206l-507 -705l526 -729h-207l-434 596l-432 -596h-205z" />
<glyph unicode="Y" horiz-adv-x="1236" d="M20 1434h201l402 -656l403 656h191l-515 -820v-614h-174v614z" />
<glyph unicode="Z" horiz-adv-x="1300" d="M82 0v117l876 1153h-835v164h1075v-117l-881 -1153h902v-164h-1137z" />
<glyph unicode="[" horiz-adv-x="655" d="M123 -410v1741h512v-153h-348v-1434h348v-154h-512z" />
<glyph unicode="\" horiz-adv-x="686" d="M-61 1407l127 47l682 -1833l-130 -47z" />
<glyph unicode="]" horiz-adv-x="655" d="M20 -256h349v1434h-349v153h512v-1741h-512v154z" />
<glyph unicode="^" horiz-adv-x="1007" d="M82 922l369 528h110l365 -528h-178l-244 360l-244 -360h-178z" />
<glyph unicode="_" horiz-adv-x="638" d="M0 -246h639v-164h-639v164z" />
<glyph unicode="`" horiz-adv-x="593" d="M123 1378l129 99l219 -320l-100 -70z" />
<glyph unicode="a" horiz-adv-x="942" d="M82 270q0 137 100 217q94 76 248 76q147 0 229 -59q0 147 -36 211q-45 80 -172 80q-125 0 -254 -68l-43 131q135 84 307 84q354 0 354 -377v-565h-156v119q-106 -133 -294 -133q-127 0 -205 75q-78 78 -78 209zM256 279q0 -145 166 -146q137 0 237 119v117 q-86 61 -206 61q-82 0 -136 -35q-61 -41 -61 -116z" />
<glyph unicode="b" horiz-adv-x="1124" d="M147 86v1348h164v-600q118 108 284 108h3q203 0 322 -131q117 -127 116 -336q0 -227 -139 -360q-139 -135 -373 -135q-229 0 -377 106zM311 197q96 -63 221 -64q143 0 236 88q94 90 94 242q0 154 -84 239q-82 86 -217 86h-3q-154 0 -247 -118v-473z" />
<glyph unicode="c" horiz-adv-x="999" d="M86 461q0 203 133 342t334 139q242 0 362 -121l-75 -129q-104 96 -265 96q-129 0 -219 -90q-96 -96 -96 -237q0 -147 98 -240q92 -88 234 -88q160 0 264 119l78 -119q-118 -153 -351 -153h-3q-221 0 -357 131q-137 133 -137 350z" />
<glyph unicode="d" horiz-adv-x="1134" d="M86 455q0 215 143 352q141 135 361 135q141 0 233 -65v557h164v-1434h-164v117q-123 -133 -293 -133q-203 0 -323 129q-121 129 -121 342zM260 459q0 -150 86 -238q82 -84 215 -84q151 0 262 123v457q-111 71 -224 71h-3q-141 0 -236 -88q-100 -94 -100 -241z" />
<glyph unicode="e" horiz-adv-x="1064" d="M86 461q0 209 125 342q129 139 350 139q182 0 303 -115q125 -121 125 -307q0 -63 -10 -110h-709q10 -129 99 -203q86 -74 223 -74q180 0 282 96l52 -129q-132 -120 -343 -120h-3q-223 0 -359 131q-135 131 -135 350zM260 543h559q-6 115 -76 180q-71 65 -186 65h-4h-3 q-121 0 -200 -69q-76 -68 -90 -176z" />
<glyph unicode="f" horiz-adv-x="675" d="M168 0v1071q0 383 324 383q160 0 245 -82l-57 -125q-63 53 -162 53q-186 0 -186 -247v-131h307v-154h-307v-768h-164z" />
<glyph unicode="g" horiz-adv-x="1011" d="M20 -133q0 219 295 280q-22 28 -22 72q0 51 24 82q-206 84 -206 301q0 145 102 240q104 100 274 100q133 0 234 -68l270 66l4 -133l-174 -43q43 -70 43 -160q0 -141 -102 -235q-106 -96 -275 -97q-41 0 -61 2q-10 -20 -10 -51q0 -37 18 -61l55 2q211 0 336 -74 q133 -78 133 -223q0 -143 -133 -219q-125 -74 -336 -74t-335 72q-133 76 -134 221zM174 -133q0 -76 86 -119q84 -41 229 -41q315 0 316 160q0 76 -84 121q-84 43 -232 43q-147 0 -231 -43q-84 -45 -84 -121zM264 604q1 -86 62 -141q61 -57 161 -57q98 0 160 55q63 55 64 143 q0 88 -60 146q-63 59 -164 59q-100 0 -161 -59q-61 -57 -62 -146z" />
<glyph unicode="h" horiz-adv-x="1124" d="M147 0v1434h164v-619q119 123 301 123q383 0 383 -410v-528h-164v506q0 278 -256 278h-2q-160 0 -262 -116v-668h-164z" />
<glyph unicode="i" horiz-adv-x="548" d="M172 1268q0 42 33 71q29 27 74 27q41 0 69 -27q31 -29 31 -71q0 -49 -31 -78q-29 -29 -69 -29q-106 0 -107 107zM193 0v922h163v-922h-163z" />
<glyph unicode="j" horiz-adv-x="544" d="M-129 -367l47 131q57 -36 118 -36h3q162 0 162 217v977h164v-990q0 -358 -289 -358q-129 0 -205 59zM178 1268q0 42 33 71q29 27 74 27q41 0 69 -27q31 -29 31 -71q0 -49 -31 -78q-29 -29 -69 -29q-106 0 -107 107z" />
<glyph unicode="k" horiz-adv-x="1005" d="M147 0v1434h164v-1434h-164zM346 481l381 441h209l-391 -428l440 -494h-223z" />
<glyph unicode="l" horiz-adv-x="593" d="M147 246v1188h164v-1115q0 -182 109 -182q55 0 117 41l36 -125q-87 -69 -213 -69h-4q-209 0 -209 262z" />
<glyph unicode="m" horiz-adv-x="1644" d="M147 0v922h164v-117q113 133 305 133q221 0 279 -160q111 160 324 160q297 0 297 -334v-604h-164v559q0 225 -199 225q-166 0 -242 -133q2 -16 2 -65v-586h-163v594q0 190 -197 190q-154 0 -242 -125v-659h-164z" />
<glyph unicode="n" horiz-adv-x="1124" d="M147 0v922h164v-113q117 129 301 129q383 0 383 -406v-532h-164v502q0 282 -258 282h-2q-156 0 -260 -118v-666h-164z" />
<glyph unicode="o" horiz-adv-x="1157" d="M86 461q0 209 135 344q137 137 357 137q219 0 356 -137q135 -135 135 -344t-135 -344q-137 -137 -356 -137t-357 137q-135 135 -135 344zM260 461q0 -144 90 -236q88 -92 228 -92q139 0 227 90q90 92 90 238q0 143 -90 235q-88 92 -227 92q-137 0 -226 -90 q-92 -92 -92 -237z" />
<glyph unicode="p" horiz-adv-x="1138" d="M147 -410v1332h164v-109q111 129 314 129q195 0 311 -131q115 -129 115 -336q0 -213 -131 -352q-135 -143 -349 -143q-164 0 -260 63v-453h-164zM311 205q106 -72 246 -72q145 0 234 94q86 94 86 242q0 143 -78 229q-82 90 -221 90h-3q-163 0 -264 -126v-457z" />
<glyph unicode="q" horiz-adv-x="1140" d="M86 461q0 203 145 342q150 139 373 139q221 0 387 -104v-1248h-164v484q-121 -94 -268 -94q-215 0 -344 131t-129 350zM260 453q0 -141 88 -230q88 -90 232 -90q155 0 247 111v485q-104 59 -225 59q-152 0 -248 -98q-94 -96 -94 -237z" />
<glyph unicode="r" horiz-adv-x="696" d="M147 0v922h164v-109q84 125 232 125q96 0 143 -35l-57 -153q-57 34 -121 34h-4q-125 0 -193 -131v-653h-164z" />
<glyph unicode="s" horiz-adv-x="880" d="M92 123l92 117q100 -117 267 -117q70 0 114 33q49 35 49 96q0 60 -77 96q-14 8 -170 62q-250 84 -250 272q0 119 88 190q86 70 225 70q205 0 318 -108l-78 -125q-100 90 -232 90q-68 0 -108 -35q-39 -33 -39 -80q0 -63 78 -102q23 -12 172 -62q247 -84 247 -261 q0 -138 -108 -214q-95 -65 -243 -65h-5q-106 0 -209 47q-96 43 -131 96z" />
<glyph unicode="t" horiz-adv-x="722" d="M127 350v828h164v-256h338v-154h-338v-401q0 -229 164 -230q78 0 145 51l51 -127q-93 -77 -231 -77h-4q-289 0 -289 366z" />
<glyph unicode="u" horiz-adv-x="1105" d="M127 373v549h164v-512q0 -276 237 -277q158 0 265 137v652h163v-922h-163v131q-122 -151 -323 -151h-3q-340 0 -340 393z" />
<glyph unicode="v" horiz-adv-x="974" d="M10 922h193l223 -498q37 -84 78 -205q35 113 76 209l211 494h174l-408 -930h-119z" />
<glyph unicode="w" horiz-adv-x="1445" d="M20 922h177l180 -582q8 -25 18 -66l17 -63l39 129l208 582h142l211 -580l43 -133q16 72 37 141l168 572h165l-295 -930h-143l-229 600q-16 41 -35 113q-23 -82 -39 -119l-223 -594h-135z" />
<glyph unicode="x" horiz-adv-x="1038" d="M51 0l348 469l-327 453h200l250 -349l254 349h191l-330 -445l350 -477h-201l-270 373l-274 -373h-191z" />
<glyph unicode="y" horiz-adv-x="1005" d="M20 922h197l270 -586l56 -139q18 68 43 141l213 584h186l-369 -922q-98 -240 -178 -328q-72 -82 -174 -82q-88 0 -174 58l53 125q66 -31 103 -31q111 0 196 209l21 49z" />
<glyph unicode="z" horiz-adv-x="993" d="M92 0v115l576 653h-545v154h778v-115l-577 -653h567v-154h-799z" />
<glyph unicode="{" horiz-adv-x="686" d="M41 389v143q72 0 121 46q63 57 63 180v284q0 145 62 215q68 74 221 74h137v-153h-98q-88 0 -123 -43t-35 -148v-291q0 -213 -153 -233q154 -18 153 -234v-297q0 -188 170 -188h86v-154h-145q-274 0 -275 277v321q0 205 -184 201z" />
<glyph unicode="|" horiz-adv-x="675" d="M256 0v1434h164v-1434h-164z" />
<glyph unicode="}" horiz-adv-x="686" d="M41 -256h86q170 0 170 188v297q0 215 154 234q-154 20 -154 233v291q0 104 -35 148q-37 43 -123 43h-98v153h137q154 0 221 -74q61 -70 62 -215v-284q0 -123 65 -180q47 -45 119 -46v-143q-184 4 -184 -201v-321q0 -276 -277 -277h-143v154z" />
<glyph unicode="~" d="M102 733q137 147 279 148q86 0 242 -72q156 -74 233 -74q94 0 186 92l66 -112q-129 -123 -254 -123q-84 0 -238 74q-154 72 -227 71q-100 0 -213 -108z" />
<glyph unicode="&#xa1;" horiz-adv-x="634" d="M205 825q0 47 31 82t77 35q53 0 88 -35q31 -35 31 -82q0 -42 -31 -73q-35 -35 -88 -35q-45 0 -77 35q-31 33 -31 73zM231 496h175v-994h-175v994z" />
<glyph unicode="&#xa2;" d="M182 461q0 182 109 315t282 160v223h164v-221q174 -18 275 -117l-76 -129q-104 96 -264 96q-129 0 -219 -90q-96 -96 -97 -237q0 -147 99 -240q92 -88 233 -88q160 0 264 119l78 -119q-102 -129 -293 -149v-230h-164v234q-180 29 -284 155q-106 127 -107 318z" />
<glyph unicode="&#xa3;" d="M78 115q78 84 172 123q106 135 106 276q0 33 -2 49h-200v133h161q-111 256 -110 357q0 166 121 278q125 119 321 119q250 0 391 -156l-92 -127q-125 119 -295 119q-117 0 -190 -74q-72 -70 -72 -170l117 -346h332v-133h-308v-18q0 -145 -110 -285q68 -6 215 -57 q135 -47 211 -47q125 0 223 94l74 -127q-129 -131 -301 -131q-78 0 -234 53q-154 53 -233 53q-111 0 -228 -112z" />
<glyph unicode="&#xa4;" d="M47 248l178 182q-84 119 -84 277q0 155 84 276l-170 174l103 103l170 -175q119 86 278 86q156 0 277 -84l180 179l102 -103l-180 -178q86 -125 86 -278q0 -156 -86 -277l174 -174l-100 -100l-174 172q-119 -86 -279 -86t-278 86l-181 -181zM295 707q0 -136 82 -226 q88 -96 229 -96q145 0 232 96q80 88 80 226q0 139 -82 229q-86 92 -230 92q-141 0 -227 -94q-84 -90 -84 -227z" />
<glyph unicode="&#xa5;" d="M39 1434h201l370 -656l373 656h191l-406 -689h301v-133h-379v-215h379v-133h-379v-264h-174v264h-377v133h377v215h-377v133h299z" />
<glyph unicode="&#xa6;" horiz-adv-x="675" d="M256 0v532h164v-532h-164zM256 901v533h164v-533h-164z" />
<glyph unicode="&#xa7;" horiz-adv-x="1073" d="M133 510q0 131 72 225q72 98 198 133q-168 94 -167 277q0 125 86 205q92 84 243 84q172 0 277 -134l-99 -110q-82 90 -174 90q-72 0 -120 -49q-49 -47 -50 -117q0 -139 179 -229q166 -12 266 -119q96 -102 96 -256q0 -131 -72 -227q-76 -98 -202 -131q168 -96 168 -273 q0 -125 -86 -205q-92 -84 -244 -84q-178 0 -279 134l99 110q82 -90 176 -90q72 0 121 49q49 47 49 117q0 137 -183 227q-164 14 -260 121q-94 102 -94 252zM297 510q0 -96 68 -162q68 -70 172 -69q106 0 174 69q66 66 65 162q0 96 -67 164q-68 70 -172 69q-104 0 -172 -69 q-68 -68 -68 -164z" />
<glyph unicode="&#xa8;" horiz-adv-x="849" d="M123 1249q0 94 96 94q35 0 62 -24q29 -29 28 -70q0 -47 -28 -75q-25 -27 -62 -27q-96 0 -96 102zM539 1249q0 94 98 94q35 0 61 -24q29 -29 29 -70q0 -47 -29 -75q-25 -27 -61 -27q-98 0 -98 102z" />
<glyph unicode="&#xa9;" horiz-adv-x="2084" d="M154 453q0 372 254 630q258 258 634 258q377 0 635 -258q254 -258 254 -630q0 -373 -254 -631q-258 -258 -635 -258t-634 258q-254 258 -254 631zM297 451q0 -312 211 -525q215 -219 534 -219q317 0 533 219q213 215 213 525q0 311 -213 528q-215 219 -533 219 q-319 0 -534 -219q-211 -217 -211 -528zM565 461q0 203 133 342t334 139q242 0 363 -121l-76 -129q-104 96 -264 96q-129 0 -219 -90q-96 -96 -97 -237q0 -147 99 -240q92 -88 233 -88q160 0 264 119l78 -119q-119 -154 -354 -153q-221 0 -357 131q-137 133 -137 350z" />
<glyph unicode="&#xaa;" horiz-adv-x="870" d="M102 868q0 221 258 222q135 0 224 -52v11q0 176 -172 176q-104 0 -179 -51l-61 96q106 78 266 78q127 0 205 -66q84 -70 84 -199v-417h-143v96q-86 -104 -254 -105q-102 0 -166 64q-61 59 -62 147zM256 883q0 -104 143 -105q95 0 185 74v94q-86 41 -176 41 q-152 0 -152 -104z" />
<glyph unicode="&#xab;" horiz-adv-x="1085" d="M92 508v8l385 442l107 -94l-303 -352l301 -354l-111 -97zM481 508v8l385 442l107 -94l-303 -352l301 -354l-111 -97z" />
<glyph unicode="&#xac;" d="M121 666v143h971v-412h-144v269h-827z" />
<glyph unicode="&#xad;" horiz-adv-x="796" d="M154 481v154h489v-154h-489z" />
<glyph unicode="&#xae;" horiz-adv-x="1265" d="M102 1018q0 219 156 373q156 156 377 155q219 0 373 -155q156 -154 155 -373q0 -223 -155 -379q-154 -156 -373 -156q-223 0 -377 156q-156 156 -156 379zM236 1016q-1 -164 116 -281t281 -117t280 117q117 117 117 281t-117 280q-117 117 -280 117q-164 0 -281 -117 t-116 -280zM432 737v574h201q221 0 221 -178q0 -129 -123 -166l152 -230h-133l-129 207h-76v-207h-113zM545 1026h80q49 0 84 29q33 31 32 75q0 98 -123 99h-73v-203z" />
<glyph unicode="&#xaf;" horiz-adv-x="786" d="M123 1188v133h541v-133h-541z" />
<glyph unicode="&#xb0;" horiz-adv-x="839" d="M102 1165q1 136 93 228t223 92q133 0 225 -88q94 -90 94 -226q0 -133 -94 -227q-92 -94 -225 -94q-131 0 -223 90q-92 92 -93 225zM246 1167q0 -72 51 -123t123 -51t123 51t51 123t-51 123t-123 51t-123 -51t-51 -123z" />
<glyph unicode="&#xb1;" d="M141 338v143h930v-143h-930zM141 840v143h385v391h154v-391h391v-143h-391v-252h-154v252h-385z" />
<glyph unicode="&#xb2;" horiz-adv-x="714" d="M72 717v104q193 129 252 178q141 119 141 207q0 113 -125 113q-51 0 -92 -33q-41 -35 -49 -86l-121 43q14 92 92 146q76 53 184 53q127 0 197 -64q66 -59 65 -155q0 -209 -356 -383h393v-123h-581z" />
<glyph unicode="&#xb3;" horiz-adv-x="716" d="M51 848l84 78q53 -102 189 -103q158 0 157 109q0 96 -145 96h-70v102h62q53 0 90 31q37 29 37 74q0 92 -129 92q-119 0 -183 -92l-69 78q74 131 280 131q115 0 185 -47q70 -49 69 -133q0 -133 -151 -172v-2q84 -6 133 -58q45 -47 45 -112q0 -96 -86 -158 q-80 -57 -203 -57q-217 0 -295 143z" />
<glyph unicode="&#xb4;" horiz-adv-x="589" d="M123 1157l217 322l127 -99l-246 -293z" />
<glyph unicode="&#xb6;" horiz-adv-x="944" d="M92 985q0 207 121 330q121 119 317 119h353v-154h-193v-1307q0 -399 -338 -399q-145 0 -233 84l67 119q66 -49 154 -49q186 0 186 252v559q-182 2 -305 118q-129 125 -129 328z" />
<glyph unicode="&#xb7;" horiz-adv-x="460" d="M117 612q-1 43 30 74q35 35 86 35q45 0 78 -35q31 -33 31 -74q0 -47 -31 -82t-78 -34q-51 0 -86 34q-31 35 -30 82z" />
<glyph unicode="&#xb8;" horiz-adv-x="718" d="M123 -350l49 80q72 -47 145 -47q115 0 115 73q0 80 -119 80h-12v164h88v-88q207 -12 207 -164q0 -76 -68 -121q-70 -47 -190 -47q-111 0 -215 70z" />
<glyph unicode="&#xb9;" horiz-adv-x="516" d="M45 1290l215 146h102v-719h-143v551l-119 -76z" />
<glyph unicode="&#xba;" horiz-adv-x="974" d="M113 1001q0 154 106 250q104 96 268 97q164 0 269 -97q106 -96 106 -250t-106 -251q-106 -96 -269 -97q-162 0 -268 97q-106 98 -106 251zM266 1001q0 -96 68 -155q63 -59 153 -60q92 0 156 60q66 59 66 155q0 94 -66 156q-63 57 -156 57q-92 0 -155 -57 q-66 -61 -66 -156z" />
<glyph unicode="&#xbb;" horiz-adv-x="1085" d="M113 864l106 94l385 -442v-8l-379 -447l-110 97l301 354zM502 864l106 94l385 -442v-8l-379 -447l-110 97l301 354z" />
<glyph unicode="&#xbc;" horiz-adv-x="1378" d="M66 1290l215 146h102v-719h-143v551l-119 -76zM102 47l1053 1407l94 -70l-1050 -1404zM686 162v94l344 461h137l-333 -443h249v187h134v-187h120v-112h-120v-162h-134v162h-397z" />
<glyph unicode="&#xbd;" horiz-adv-x="1411" d="M61 47l1053 1407l94 -70l-1050 -1404zM66 1290l215 146h102v-719h-143v551l-119 -76zM748 0v104q193 129 251 179q141 119 142 206q0 113 -125 113q-51 0 -92 -33q-41 -35 -50 -86l-120 43q14 92 92 146q76 53 184 53q127 0 197 -63q66 -59 65 -156q0 -209 -356 -383h393 v-123h-581z" />
<glyph unicode="&#xbe;" horiz-adv-x="1480" d="M61 848l84 78q53 -102 189 -103q158 0 158 109q0 96 -146 96h-70v102h62q53 0 90 31q37 29 37 74q0 92 -129 92q-119 0 -182 -92l-70 78q74 131 281 131q115 0 184 -47q70 -49 69 -133q0 -133 -151 -172v-2q84 -6 133 -58q45 -47 45 -112q0 -96 -86 -158 q-80 -57 -203 -57q-217 0 -295 143zM225 47l1053 1407l94 -70l-1050 -1404zM788 162v94l345 461h137l-334 -443h250v187h133v-187h121v-112h-121v-162h-133v162h-398z" />
<glyph unicode="&#xbf;" horiz-adv-x="954" d="M61 -164q0 209 220 377q104 82 137 127q55 76 37 180l147 2q39 -205 -153 -352q-115 -86 -144 -119q-68 -78 -67 -180q-1 -94 69 -160q72 -66 180 -65q176 0 287 151l98 -108q-129 -207 -395 -207q-193 0 -307 104q-109 100 -109 250zM416 825q0 47 30 82q31 35 78 35 q53 0 88 -35q31 -35 31 -82q0 -42 -31 -73q-35 -35 -88 -35q-45 0 -78 35q-31 33 -30 73z" />
<glyph unicode="&#xc0;" horiz-adv-x="1443" d="M31 0l616 1442h150l616 -1442h-186l-185 434h-653l-182 -434h-176zM395 1677l62 140l399 -213l-47 -99zM459 598h516l-258 612z" />
<glyph unicode="&#xc1;" horiz-adv-x="1443" d="M31 0l616 1442h150l616 -1442h-186l-185 434h-653l-182 -434h-176zM459 598h516l-258 612zM590 1604l399 213l62 -140l-414 -172z" />
<glyph unicode="&#xc2;" horiz-adv-x="1443" d="M31 0l616 1442h150l616 -1442h-186l-185 434h-653l-182 -434h-176zM362 1593l351 213h8l356 -211l-67 -94l-293 156l-295 -156zM459 598h516l-258 612z" />
<glyph unicode="&#xc3;" horiz-adv-x="1443" d="M31 0l616 1442h150l616 -1442h-186l-185 434h-653l-182 -434h-176zM365 1661q90 96 204 96q63 0 158 -41q96 -41 150 -41q92 0 153 66l45 -103q-80 -106 -209 -106q-55 0 -153 41q-100 41 -160 41q-68 0 -135 -55zM459 598h516l-258 612z" />
<glyph unicode="&#xc4;" horiz-adv-x="1443" d="M31 0l616 1442h150l616 -1442h-186l-185 434h-653l-182 -434h-176zM373 1665q-1 92 112 92q43 0 74 -24q33 -27 33 -68q0 -45 -33 -74q-31 -25 -74 -24q-113 0 -112 98zM459 598h516l-258 612zM848 1665q0 92 115 92q104 0 104 -92q0 -98 -104 -98q-115 0 -115 98z" />
<glyph unicode="&#xc5;" horiz-adv-x="1443" d="M31 0l608 1425q-174 35 -174 197q0 99 76 150q66 47 178 47q258 0 258 -197q0 -158 -174 -197l610 -1425h-186l-185 434h-653l-182 -434h-176zM459 598h516l-258 612zM588 1622q0 -113 133 -113t133 113q0 104 -133 104t-133 -104z" />
<glyph unicode="&#xc6;" horiz-adv-x="1957" d="M-31 0l1030 1434h805v-164h-635v-463h574v-164h-574v-479h656v-164h-830v442h-512l-311 -442h-203zM598 606h397v563z" />
<glyph unicode="&#xc7;" horiz-adv-x="1343" d="M102 717q0 317 189 522q199 215 526 215q274 0 436 -139l-79 -131q-143 106 -355 106q-233 0 -383 -160t-149 -413q0 -256 155 -416q154 -158 404 -158q211 0 366 127l70 -131q-150 -154 -440 -159v-68q217 -12 217 -164q0 -76 -68 -121q-68 -47 -184 -47q-131 0 -242 74 l53 86q82 -57 152 -57q115 0 115 73q0 80 -119 80h-12v148q-295 23 -471 221q-180 199 -181 512z" />
<glyph unicode="&#xc8;" horiz-adv-x="1177" d="M215 0v1434h809v-164h-635v-463h574v-164h-574v-479h655v-164h-829zM324 1677l61 140l399 -213l-47 -99z" />
<glyph unicode="&#xc9;" horiz-adv-x="1177" d="M215 0v1434h809v-164h-635v-463h574v-164h-574v-479h655v-164h-829zM467 1604l399 213l62 -140l-414 -172z" />
<glyph unicode="&#xca;" horiz-adv-x="1177" d="M215 0v1434h809v-164h-635v-463h574v-164h-574v-479h655v-164h-829zM264 1593l350 213h9l356 -211l-68 -94l-293 156l-294 -156z" />
<glyph unicode="&#xcb;" horiz-adv-x="1177" d="M215 0v1434h809v-164h-635v-463h574v-164h-574v-479h655v-164h-829zM279 1665q-1 92 112 92q43 0 74 -24q33 -27 33 -68q0 -45 -33 -74q-31 -25 -74 -24q-113 0 -112 98zM754 1665q-1 92 114 92q104 0 105 -92q0 -98 -105 -98q-115 0 -114 98z" />
<glyph unicode="&#xcc;" horiz-adv-x="686" d="M-4 1677l61 140l400 -213l-47 -99zM256 0v1434h174v-1434h-174z" />
<glyph unicode="&#xcd;" horiz-adv-x="686" d="M231 1604l400 213l61 -140l-413 -172zM256 0v1434h174v-1434h-174z" />
<glyph unicode="&#xce;" horiz-adv-x="686" d="M-14 1593l350 213h8l356 -211l-67 -94l-293 156l-295 -156zM256 0v1434h174v-1434h-174z" />
<glyph unicode="&#xcf;" horiz-adv-x="686" d="M-4 1665q0 92 113 92q43 0 73 -24q33 -27 33 -68q0 -45 -33 -74q-31 -25 -73 -24q-113 0 -113 98zM256 0v1434h174v-1434h-174zM471 1665q0 92 115 92q104 0 104 -92q0 -98 -104 -98q-115 0 -115 98z" />
<glyph unicode="&#xd0;" horiz-adv-x="1544" d="M20 647v154h226v633l391 6q406 0 618 -211q186 -188 187 -494q0 -322 -205 -522q-223 -217 -616 -217l-375 4v647h-226zM420 164l207 -4q299 0 469 162q162 156 161 413q0 242 -155 387q-168 154 -469 154l-213 -6v-469h385v-154h-385v-483z" />
<glyph unicode="&#xd1;" horiz-adv-x="1628" d="M215 0v1434h139l895 -1131v1131h164v-1434h-139l-895 1126v-1126h-164zM471 1661q90 96 205 96q63 0 158 -41q96 -41 149 -41q92 0 154 66l45 -103q-80 -106 -209 -106q-55 0 -154 41q-100 41 -160 41q-68 0 -135 -55z" />
<glyph unicode="&#xd2;" horiz-adv-x="1667" d="M102 717q0 313 207 524q207 213 525 213q315 0 522 -205q209 -209 209 -532q0 -317 -209 -529q-209 -209 -522 -208q-315 0 -523 204q-209 209 -209 533zM287 717q-1 -244 157 -410q158 -164 390 -164q242 0 397 166q150 162 149 408q0 248 -157 411q-158 162 -389 162 q-236 0 -390 -162q-158 -162 -157 -411zM569 1677l62 140l399 -213l-47 -99z" />
<glyph unicode="&#xd3;" horiz-adv-x="1667" d="M102 717q0 313 207 524q207 213 525 213q315 0 522 -205q209 -209 209 -532q0 -317 -209 -529q-209 -209 -522 -208q-315 0 -523 204q-209 209 -209 533zM287 717q-1 -244 157 -410q158 -164 390 -164q242 0 397 166q150 162 149 408q0 248 -157 411q-158 162 -389 162 q-236 0 -390 -162q-158 -162 -157 -411zM692 1604l400 213l61 -140l-414 -172z" />
<glyph unicode="&#xd4;" horiz-adv-x="1667" d="M102 717q0 313 207 524q207 213 525 213q315 0 522 -205q209 -209 209 -532q0 -317 -209 -529q-209 -209 -522 -208q-315 0 -523 204q-209 209 -209 533zM287 717q-1 -244 157 -410q158 -164 390 -164q242 0 397 166q150 162 149 408q0 248 -157 411q-158 162 -389 162 q-236 0 -390 -162q-158 -162 -157 -411zM483 1593l351 213h8l356 -211l-68 -94l-292 156l-295 -156z" />
<glyph unicode="&#xd5;" horiz-adv-x="1667" d="M102 717q0 313 207 524q207 213 525 213q315 0 522 -205q209 -209 209 -532q0 -317 -209 -529q-209 -209 -522 -208q-315 0 -523 204q-209 209 -209 533zM287 717q-1 -244 157 -410q158 -164 390 -164q242 0 397 166q150 162 149 408q0 248 -157 411q-158 162 -389 162 q-236 0 -390 -162q-158 -162 -157 -411zM475 1661q90 96 205 96q63 0 158 -41q96 -41 149 -41q92 0 154 66l45 -103q-80 -106 -209 -106q-55 0 -154 41q-100 41 -159 41q-68 0 -136 -55z" />
<glyph unicode="&#xd6;" horiz-adv-x="1667" d="M102 717q0 313 207 524q207 213 525 213q315 0 522 -205q209 -209 209 -532q0 -317 -209 -529q-209 -209 -522 -208q-315 0 -523 204q-209 209 -209 533zM287 717q-1 -244 157 -410q158 -164 390 -164q242 0 397 166q150 162 149 408q0 248 -157 411q-158 162 -389 162 q-236 0 -390 -162q-158 -162 -157 -411zM483 1665q0 92 113 92q43 0 74 -24q33 -27 32 -68q0 -45 -32 -74q-31 -25 -74 -24q-113 0 -113 98zM958 1665q0 92 115 92q104 0 105 -92q0 -98 -105 -98q-115 0 -115 98z" />
<glyph unicode="&#xd7;" d="M225 459l279 278l-277 277l103 102l276 -278l277 278l100 -102l-276 -277l280 -278l-102 -103l-279 279l-280 -279z" />
<glyph unicode="&#xd8;" horiz-adv-x="1667" d="M102 717q0 313 207 524q207 213 525 213q276 0 473 -164l90 88l94 -96l-88 -86q162 -197 162 -479q0 -317 -209 -529q-209 -209 -522 -208q-291 0 -492 178l-92 -90l-96 98l94 92q-145 190 -146 459zM287 717q0 -185 94 -330l799 780q-145 123 -346 123q-236 0 -390 -162 q-158 -162 -157 -411zM469 283q152 -139 365 -140q242 0 397 166q150 162 149 408q1 198 -108 350z" />
<glyph unicode="&#xd9;" horiz-adv-x="1538" d="M195 612v822h174v-789q0 -236 108 -366q111 -133 311 -134q180 0 279 121q102 127 102 367v801h174v-836q0 -309 -167 -473q-147 -143 -388 -143q-268 0 -426 157q-168 168 -167 473zM477 1677l62 140l399 -213l-47 -99z" />
<glyph unicode="&#xda;" horiz-adv-x="1538" d="M195 612v822h174v-789q0 -236 108 -366q111 -133 311 -134q180 0 279 121q102 127 102 367v801h174v-836q0 -309 -167 -473q-147 -143 -388 -143q-268 0 -426 157q-168 168 -167 473zM621 1604l399 213l61 -140l-413 -172z" />
<glyph unicode="&#xdb;" horiz-adv-x="1538" d="M195 612v822h174v-789q0 -236 108 -366q111 -133 311 -134q180 0 279 121q102 127 102 367v801h174v-836q0 -309 -167 -473q-147 -143 -388 -143q-268 0 -426 157q-168 168 -167 473zM410 1593l350 213h8l356 -211l-67 -94l-293 156l-295 -156z" />
<glyph unicode="&#xdc;" horiz-adv-x="1538" d="M195 612v822h174v-789q0 -236 108 -366q111 -133 311 -134q180 0 279 121q102 127 102 367v801h174v-836q0 -309 -167 -473q-147 -143 -388 -143q-268 0 -426 157q-168 168 -167 473zM412 1665q-1 92 112 92q43 0 74 -24q33 -27 33 -68q0 -45 -33 -74q-31 -25 -74 -24 q-113 0 -112 98zM887 1665q-1 92 114 92q104 0 105 -92q0 -98 -105 -98q-115 0 -114 98z" />
<glyph unicode="&#xdd;" horiz-adv-x="1236" d="M20 1434h201l402 -656l403 656h191l-515 -820v-614h-174v614zM477 1604l400 213l61 -140l-414 -172z" />
<glyph unicode="&#xde;" horiz-adv-x="1222" d="M215 0v1434h174v-215l201 4q283 0 420 -140q111 -113 110 -305q0 -188 -127 -313q-141 -137 -389 -137q-119 0 -215 8v-336h-174zM389 502q117 -10 209 -10q158 0 248 77q90 76 90 211q0 279 -344 279q-62 0 -203 -6v-551z" />
<glyph unicode="&#xdf;" horiz-adv-x="1118" d="M154 -4v1044q0 414 385 414q135 0 225 -74q90 -76 90 -186q0 -106 -96 -205q-96 -96 -96 -164q0 -70 59 -125q23 -23 129 -92q186 -123 186 -297q0 -141 -90 -235q-90 -96 -225 -96q-193 0 -293 133l55 125q88 -104 199 -105q74 0 125 47q55 51 55 135q0 109 -186 232 q-188 125 -189 248q0 106 97 206q96 98 96 164q0 59 -49 99q-47 37 -115 36q-199 0 -199 -280v-1024h-163z" />
<glyph unicode="&#xe0;" horiz-adv-x="942" d="M82 270q0 137 100 217q94 76 248 76q147 0 229 -59q0 147 -36 211q-45 80 -172 80q-125 0 -254 -68l-43 131q135 84 307 84q354 0 354 -377v-565h-156v119q-106 -133 -294 -133q-127 0 -205 75q-78 78 -78 209zM256 279q0 -145 166 -146q137 0 237 119v117 q-86 61 -206 61q-82 0 -136 -35q-61 -41 -61 -116zM266 1378l129 99l219 -320l-100 -70z" />
<glyph unicode="&#xe1;" horiz-adv-x="942" d="M82 270q0 137 100 217q94 76 248 76q147 0 229 -59q0 147 -36 211q-45 80 -172 80q-125 0 -254 -68l-43 131q135 84 307 84q354 0 354 -377v-565h-156v119q-106 -133 -294 -133q-127 0 -205 75q-78 78 -78 209zM256 279q0 -145 166 -146q137 0 237 119v117 q-86 61 -206 61q-82 0 -136 -35q-61 -41 -61 -116zM342 1157l217 322l127 -99l-246 -293z" />
<glyph unicode="&#xe2;" horiz-adv-x="942" d="M82 270q0 137 100 217q94 76 248 76q147 0 229 -59q0 147 -36 211q-45 80 -172 80q-125 0 -254 -68l-43 131q135 84 307 84q354 0 354 -377v-565h-156v119q-106 -133 -294 -133q-127 0 -205 75q-78 78 -78 209zM178 1176l289 272h8l285 -272l-78 -99l-213 187l-213 -185z M256 279q0 -145 166 -146q137 0 237 119v117q-86 61 -206 61q-82 0 -136 -35q-61 -41 -61 -116z" />
<glyph unicode="&#xe3;" horiz-adv-x="942" d="M82 270q0 137 100 217q94 76 248 76q147 0 229 -59q0 147 -36 211q-45 80 -172 80q-125 0 -254 -68l-43 131q135 84 307 84q354 0 354 -377v-565h-156v119q-106 -133 -294 -133q-127 0 -205 75q-78 78 -78 209zM135 1217q109 123 225 122q49 0 121 -45q70 -45 111 -45 q59 0 145 72l58 -84q-115 -121 -217 -121q-45 0 -117 45q-70 45 -117 45q-55 0 -141 -65zM256 279q0 -145 166 -146q137 0 237 119v117q-86 61 -206 61q-82 0 -136 -35q-61 -41 -61 -116z" />
<glyph unicode="&#xe4;" horiz-adv-x="942" d="M82 270q0 137 100 217q94 76 248 76q147 0 229 -59q0 147 -36 211q-45 80 -172 80q-125 0 -254 -68l-43 131q135 84 307 84q354 0 354 -377v-565h-156v119q-106 -133 -294 -133q-127 0 -205 75q-78 78 -78 209zM170 1249q0 94 96 94q35 0 62 -24q29 -29 28 -70 q0 -47 -28 -75q-25 -27 -62 -27q-96 0 -96 102zM256 279q0 -145 166 -146q137 0 237 119v117q-86 61 -206 61q-82 0 -136 -35q-61 -41 -61 -116zM586 1249q0 94 98 94q35 0 61 -24q29 -29 29 -70q0 -47 -29 -75q-25 -27 -61 -27q-98 0 -98 102z" />
<glyph unicode="&#xe5;" horiz-adv-x="942" d="M82 270q0 137 100 217q94 76 248 76q147 0 229 -59q0 147 -36 211q-45 80 -172 80q-125 0 -254 -68l-43 131q135 84 307 84q354 0 354 -377v-565h-156v119q-106 -133 -294 -133q-127 0 -205 75q-78 78 -78 209zM238 1255q-1 94 67 160q68 68 166 68q100 0 170 -68 q68 -66 68 -160t-68 -159q-70 -66 -170 -66q-98 0 -166 66t-67 159zM256 279q0 -145 166 -146q137 0 237 119v117q-86 61 -206 61q-82 0 -136 -35q-61 -41 -61 -116zM344 1257q0 -57 37 -96t92 -39t92 39t37 96q0 55 -37 95q-37 39 -92 39t-92 -39t-37 -95z" />
<glyph unicode="&#xe6;" horiz-adv-x="1587" d="M82 270q0 137 100 217q94 76 248 76q131 0 221 -28q12 254 -200 253q-125 0 -254 -67l-43 137q135 84 307 84q209 0 291 -121q131 121 331 121q182 0 303 -115q125 -121 125 -307q0 -63 -10 -110h-686v-127q90 -150 299 -150q180 0 283 96l51 -129q-133 -121 -346 -120 q-233 0 -371 143q-152 -137 -334 -137q-150 0 -233 75q-82 74 -82 209zM256 279q0 -63 47 -103q47 -37 119 -37q133 0 229 113v149q-104 29 -198 29q-82 0 -136 -35q-61 -41 -61 -116zM811 647q4 -49 4 -82v-22h526q-6 115 -75 180q-72 66 -191 65q-178 0 -264 -141z" />
<glyph unicode="&#xe7;" horiz-adv-x="999" d="M86 461q0 203 133 342t334 139q242 0 362 -121l-75 -129q-104 96 -265 96q-129 0 -219 -90q-96 -96 -96 -237q0 -147 98 -240q92 -88 234 -88q160 0 264 119l78 -119q-113 -147 -342 -153v-68q207 -12 207 -164q0 -76 -68 -121q-70 -47 -190 -47q-111 0 -215 70l49 80 q72 -47 145 -47q115 0 115 73q0 80 -119 80h-12v148q-190 23 -303 149q-115 129 -115 328z" />
<glyph unicode="&#xe8;" horiz-adv-x="1064" d="M86 461q0 209 125 342q129 139 350 139q182 0 303 -115q125 -121 125 -307q0 -63 -10 -110h-709q10 -129 99 -203q86 -74 223 -74q180 0 282 96l52 -129q-133 -121 -346 -120q-223 0 -359 131q-135 131 -135 350zM260 543h559q-6 115 -76 180q-72 66 -190 65 q-123 1 -203 -69q-76 -68 -90 -176zM338 1378l129 99l219 -320l-100 -70z" />
<glyph unicode="&#xe9;" horiz-adv-x="1064" d="M86 461q0 209 125 342q129 139 350 139q182 0 303 -115q125 -121 125 -307q0 -63 -10 -110h-709q10 -129 99 -203q86 -74 223 -74q180 0 282 96l52 -129q-133 -121 -346 -120q-223 0 -359 131q-135 131 -135 350zM260 543h559q-6 115 -76 180q-72 66 -190 65 q-123 1 -203 -69q-76 -68 -90 -176zM455 1157l217 322l127 -99l-246 -293z" />
<glyph unicode="&#xea;" horiz-adv-x="1064" d="M86 461q0 209 125 342q129 139 350 139q182 0 303 -115q125 -121 125 -307q0 -63 -10 -110h-709q10 -129 99 -203q86 -74 223 -74q180 0 282 96l52 -129q-133 -121 -346 -120q-223 0 -359 131q-135 131 -135 350zM260 543h559q-6 115 -76 180q-72 66 -190 65 q-123 1 -203 -69q-76 -68 -90 -176zM260 1176l289 272h8l285 -272l-78 -99l-213 187l-213 -185z" />
<glyph unicode="&#xeb;" horiz-adv-x="1064" d="M86 461q0 209 125 342q129 139 350 139q182 0 303 -115q125 -121 125 -307q0 -63 -10 -110h-709q10 -129 99 -203q86 -74 223 -74q180 0 282 96l52 -129q-133 -121 -346 -120q-223 0 -359 131q-135 131 -135 350zM244 1249q0 94 96 94q35 0 61 -24q29 -29 29 -70 q0 -47 -29 -75q-25 -27 -61 -27q-96 0 -96 102zM260 543h559q-6 115 -76 180q-72 66 -190 65q-123 1 -203 -69q-76 -68 -90 -176zM659 1249q1 94 99 94q35 0 61 -24q29 -29 29 -70q0 -47 -29 -75q-25 -27 -61 -27q-98 0 -99 102z" />
<glyph unicode="&#xec;" horiz-adv-x="548" d="M12 1378l129 99l219 -320l-100 -70zM193 0v922h163v-922h-163z" />
<glyph unicode="&#xed;" horiz-adv-x="548" d="M160 1157l217 322l127 -99l-246 -293zM193 0v922h163v-922h-163z" />
<glyph unicode="&#xee;" horiz-adv-x="548" d="M-16 1176l288 272h9l284 -272l-78 -99l-213 187l-213 -185zM193 0v922h163v-922h-163z" />
<glyph unicode="&#xef;" horiz-adv-x="548" d="M-27 1249q1 94 97 94q35 0 61 -24q29 -29 29 -70q0 -47 -29 -75q-25 -27 -61 -27q-96 0 -97 102zM193 0v922h163v-922h-163zM389 1249q0 94 98 94q35 0 62 -24q29 -29 29 -70q0 -47 -29 -75q-25 -27 -62 -27q-98 0 -98 102z" />
<glyph unicode="&#xf0;" horiz-adv-x="1157" d="M86 461q0 209 135 344q137 137 357 137q188 0 276 -162q-47 207 -190 379l-263 -110l-47 145l197 82q-102 90 -211 147l184 31q92 -49 172 -117l215 93l47 -146l-147 -61q258 -305 258 -691q0 -256 -135 -405q-133 -147 -356 -147q-219 0 -357 137q-135 135 -135 344z M260 461q0 -144 90 -236q88 -92 228 -92q147 0 235 111q90 113 82 299q-20 100 -102 170q-90 76 -215 75q-137 0 -226 -90q-92 -92 -92 -237z" />
<glyph unicode="&#xf1;" horiz-adv-x="1124" d="M147 0v922h164v-113q117 129 301 129q383 0 383 -406v-532h-164v502q0 283 -260 282q-156 0 -260 -118v-666h-164zM227 1217q109 123 226 122q49 0 120 -45q70 -45 111 -45q59 0 145 72l58 -84q-115 -121 -217 -121q-45 0 -117 45q-70 45 -117 45q-55 0 -141 -65z" />
<glyph unicode="&#xf2;" horiz-adv-x="1157" d="M86 461q0 209 135 344q137 137 357 137q219 0 356 -137q135 -135 135 -344t-135 -344q-137 -137 -356 -137t-357 137q-135 135 -135 344zM260 461q0 -144 90 -236q88 -92 228 -92q139 0 227 90q90 92 90 238q0 143 -90 235q-88 92 -227 92q-137 0 -226 -90 q-92 -92 -92 -237zM346 1378l129 99l219 -320l-100 -70z" />
<glyph unicode="&#xf3;" horiz-adv-x="1157" d="M86 461q0 209 135 344q137 137 357 137q219 0 356 -137q135 -135 135 -344t-135 -344q-137 -137 -356 -137t-357 137q-135 135 -135 344zM260 461q0 -144 90 -236q88 -92 228 -92q139 0 227 90q90 92 90 238q0 143 -90 235q-88 92 -227 92q-137 0 -226 -90 q-92 -92 -92 -237zM463 1157l217 322l127 -99l-246 -293z" />
<glyph unicode="&#xf4;" horiz-adv-x="1157" d="M86 461q0 209 135 344q137 137 357 137q219 0 356 -137q135 -135 135 -344t-135 -344q-137 -137 -356 -137t-357 137q-135 135 -135 344zM260 461q0 -144 90 -236q88 -92 228 -92q139 0 227 90q90 92 90 238q0 143 -90 235q-88 92 -227 92q-137 0 -226 -90 q-92 -92 -92 -237zM287 1176l288 272h9l284 -272l-77 -99l-213 187l-213 -185z" />
<glyph unicode="&#xf5;" horiz-adv-x="1157" d="M86 461q0 209 135 344q137 137 357 137q219 0 356 -137q135 -135 135 -344t-135 -344q-137 -137 -356 -137t-357 137q-135 135 -135 344zM244 1217q109 123 225 122q49 0 121 -45q70 -45 110 -45q59 0 146 72l57 -84q-115 -121 -217 -121q-45 0 -117 45q-70 45 -116 45 q-55 0 -142 -65zM260 461q0 -144 90 -236q88 -92 228 -92q139 0 227 90q90 92 90 238q0 143 -90 235q-88 92 -227 92q-137 0 -226 -90q-92 -92 -92 -237z" />
<glyph unicode="&#xf6;" horiz-adv-x="1157" d="M86 461q0 209 135 344q137 137 357 137q219 0 356 -137q135 -135 135 -344t-135 -344q-137 -137 -356 -137t-357 137q-135 135 -135 344zM260 461q0 -144 90 -236q88 -92 228 -92q139 0 227 90q90 92 90 238q0 143 -90 235q-88 92 -227 92q-137 0 -226 -90 q-92 -92 -92 -237zM285 1249q0 94 96 94q35 0 61 -24q29 -29 29 -70q0 -47 -29 -75q-25 -27 -61 -27q-96 0 -96 102zM700 1249q1 94 99 94q35 0 61 -24q29 -29 29 -70q0 -47 -29 -75q-25 -27 -61 -27q-98 0 -99 102z" />
<glyph unicode="&#xf7;" d="M141 666v143h930v-143h-930zM504 322q-1 36 26 65q29 31 76 31q43 0 72 -31q29 -29 29 -65q0 -43 -27 -74q-29 -31 -74 -31q-102 0 -102 105zM504 1155q-1 39 26 68q29 31 76 30q43 0 74 -30q27 -31 27 -68q0 -41 -27 -72q-29 -33 -74 -32q-47 0 -76 32q-27 29 -26 72z " />
<glyph unicode="&#xf8;" horiz-adv-x="1157" d="M84 76l94 90q-92 125 -92 295q0 209 135 344q137 137 357 137q184 0 313 -100l94 90l90 -101l-92 -88q86 -121 86 -282q0 -209 -135 -344q-137 -137 -356 -137q-172 0 -299 88l-103 -97zM260 461q0 -102 43 -176l467 442q-84 61 -192 61q-137 0 -226 -90 q-92 -92 -92 -237zM399 184q78 -51 179 -51q139 0 227 90q90 92 90 238q0 84 -37 162z" />
<glyph unicode="&#xf9;" horiz-adv-x="1105" d="M127 373v549h164v-512q0 -276 237 -277q158 0 265 137v652h163v-922h-163v131q-123 -152 -326 -151q-340 0 -340 393zM315 1378l129 99l220 -320l-101 -70z" />
<glyph unicode="&#xfa;" horiz-adv-x="1105" d="M127 373v549h164v-512q0 -276 237 -277q158 0 265 137v652h163v-922h-163v131q-123 -152 -326 -151q-340 0 -340 393zM442 1157l217 322l127 -99l-245 -293z" />
<glyph unicode="&#xfb;" horiz-adv-x="1105" d="M127 373v549h164v-512q0 -276 237 -277q158 0 265 137v652h163v-922h-163v131q-123 -152 -326 -151q-340 0 -340 393zM254 1176l289 272h8l285 -272l-78 -99l-213 187l-213 -185z" />
<glyph unicode="&#xfc;" horiz-adv-x="1105" d="M127 373v549h164v-512q0 -276 237 -277q158 0 265 137v652h163v-922h-163v131q-123 -152 -326 -151q-340 0 -340 393zM248 1249q0 94 96 94q35 0 62 -24q29 -29 28 -70q0 -47 -28 -75q-25 -27 -62 -27q-96 0 -96 102zM664 1249q0 94 98 94q35 0 61 -24q29 -29 29 -70 q0 -47 -29 -75q-25 -27 -61 -27q-98 0 -98 102z" />
<glyph unicode="&#xfd;" horiz-adv-x="1005" d="M20 922h197l270 -586l56 -139q18 68 43 141l213 584h186l-369 -922q-98 -240 -178 -328q-72 -82 -174 -82q-88 0 -174 58l53 125q66 -31 103 -31q111 0 196 209l21 49zM383 1157l217 322l127 -99l-246 -293z" />
<glyph unicode="&#xfe;" horiz-adv-x="1138" d="M147 -410v1844h164v-611q123 119 314 119q195 0 311 -131q115 -129 115 -336q0 -213 -131 -352q-135 -143 -349 -143q-164 0 -260 63v-453h-164zM311 205q106 -72 246 -72q145 0 234 94q86 94 86 242q0 143 -78 229q-82 90 -221 90q-165 1 -267 -126v-457z" />
<glyph unicode="&#xff;" horiz-adv-x="1005" d="M20 922h197l270 -586l56 -139q18 68 43 141l213 584h186l-369 -922q-98 -240 -178 -328q-72 -82 -174 -82q-88 0 -174 58l53 125q66 -31 103 -31q111 0 196 209l21 49zM211 1249q0 94 96 94q35 0 62 -24q29 -29 28 -70q0 -47 -28 -75q-25 -27 -62 -27q-96 0 -96 102z M627 1249q0 94 98 94q35 0 61 -24q29 -29 29 -70q0 -47 -29 -75q-25 -27 -61 -27q-98 0 -98 102z" />
<glyph unicode="&#x100;" horiz-adv-x="1443" d="M31 0l616 1442h150l616 -1442h-186l-185 434h-653l-182 -434h-176zM410 1577v133h622v-133h-622zM459 598h516l-258 612z" />
<glyph unicode="&#x101;" horiz-adv-x="942" d="M82 270q0 137 100 217q94 76 248 76q147 0 229 -59q0 147 -36 211q-45 80 -172 80q-125 0 -254 -68l-43 131q135 84 307 84q354 0 354 -377v-565h-156v119q-106 -133 -294 -133q-127 0 -205 75q-78 78 -78 209zM207 1188v133h541v-133h-541zM256 279q0 -145 166 -146 q137 0 237 119v117q-86 61 -206 61q-82 0 -136 -35q-61 -41 -61 -116z" />
<glyph unicode="&#x102;" horiz-adv-x="1443" d="M31 0l616 1442h150l616 -1442h-186l-185 434h-653l-182 -434h-176zM362 1716l74 86q119 -133 293 -133t287 133l63 -86q-123 -190 -350 -190q-244 0 -367 190zM459 598h516l-258 612z" />
<glyph unicode="&#x103;" horiz-adv-x="942" d="M82 270q0 137 100 217q94 76 248 76q147 0 229 -59q0 147 -36 211q-45 80 -172 80q-125 0 -254 -68l-43 131q135 84 307 84q354 0 354 -377v-565h-156v119q-106 -133 -294 -133q-127 0 -205 75q-78 78 -78 209zM162 1311l76 84q104 -125 233 -125q133 0 236 123l59 -80 q-127 -176 -301 -176q-190 0 -303 174zM256 279q0 -145 166 -146q137 0 237 119v117q-86 61 -206 61q-82 0 -136 -35q-61 -41 -61 -116z" />
<glyph unicode="&#x104;" horiz-adv-x="1443" d="M31 0l616 1442h150l616 -1442h-39q-94 -4 -162 -51q-72 -49 -71 -117q0 -109 123 -108q51 0 90 18l49 -100q-61 -51 -176 -52q-102 0 -170 41q-80 49 -80 148q0 174 244 233l-179 422h-653l-182 -434h-176zM459 598h516l-258 612z" />
<glyph unicode="&#x105;" horiz-adv-x="942" d="M82 270q0 137 100 217q94 76 248 76q147 0 229 -59q0 147 -36 211q-45 80 -172 80q-125 0 -254 -68l-43 131q135 84 307 84q354 0 354 -377v-565q-96 0 -170 -49q-74 -51 -74 -119q0 -109 123 -108q51 0 90 18l50 -100q-61 -51 -177 -52q-102 0 -170 41q-80 49 -79 148 q0 176 251 235v105q-106 -133 -294 -133q-127 0 -205 75q-78 78 -78 209zM256 279q0 -145 166 -146q137 0 237 119v117q-86 61 -206 61q-82 0 -136 -35q-61 -41 -61 -116z" />
<glyph unicode="&#x106;" horiz-adv-x="1343" d="M102 717q0 317 189 522q199 215 526 215q274 0 436 -139l-79 -131q-143 106 -355 106q-233 0 -383 -160t-149 -413q0 -256 155 -416q154 -158 404 -158q211 0 366 127l70 -131q-156 -160 -453 -159q-324 0 -524 200q-203 203 -203 537zM641 1604l399 213l62 -140 l-414 -172z" />
<glyph unicode="&#x107;" horiz-adv-x="999" d="M86 461q0 203 133 342t334 139q242 0 362 -121l-75 -129q-104 96 -265 96q-129 0 -219 -90q-96 -96 -96 -237q0 -147 98 -240q92 -88 234 -88q160 0 264 119l78 -119q-119 -154 -354 -153q-221 0 -357 131q-137 133 -137 350zM438 1157l217 322l127 -99l-245 -293z" />
<glyph unicode="&#x108;" horiz-adv-x="1343" d="M102 717q0 317 189 522q199 215 526 215q274 0 436 -139l-79 -131q-143 106 -355 106q-233 0 -383 -160t-149 -413q0 -256 155 -416q154 -158 404 -158q211 0 366 127l70 -131q-156 -160 -453 -159q-324 0 -524 200q-203 203 -203 537zM442 1593l351 213h8l356 -211 l-67 -94l-293 156l-295 -156z" />
<glyph unicode="&#x109;" horiz-adv-x="999" d="M86 461q0 203 133 342t334 139q242 0 362 -121l-75 -129q-104 96 -265 96q-129 0 -219 -90q-96 -96 -96 -237q0 -147 98 -240q92 -88 234 -88q160 0 264 119l78 -119q-119 -154 -354 -153q-221 0 -357 131q-137 133 -137 350zM274 1176l289 272h8l285 -272l-78 -99 l-213 187l-213 -185z" />
<glyph unicode="&#x10a;" horiz-adv-x="1343" d="M102 717q0 317 189 522q199 215 526 215q274 0 436 -139l-79 -131q-143 106 -355 106q-233 0 -383 -160t-149 -413q0 -256 155 -416q154 -158 404 -158q211 0 366 127l70 -131q-156 -160 -453 -159q-324 0 -524 200q-203 203 -203 537zM666 1673q-1 47 34 78q33 27 82 27 q45 0 78 -27q33 -31 33 -78q0 -51 -33 -82q-33 -29 -78 -28q-117 0 -116 110z" />
<glyph unicode="&#x10b;" horiz-adv-x="999" d="M86 461q0 203 133 342t334 139q242 0 362 -121l-75 -129q-104 96 -265 96q-129 0 -219 -90q-96 -96 -96 -237q0 -147 98 -240q92 -88 234 -88q160 0 264 119l78 -119q-119 -154 -354 -153q-221 0 -357 131q-137 133 -137 350zM463 1268q0 42 33 71q29 27 73 27 q41 0 70 -27q31 -29 31 -71q0 -49 -31 -78q-29 -29 -70 -29q-106 0 -106 107z" />
<glyph unicode="&#x10c;" horiz-adv-x="1343" d="M102 717q0 317 189 522q199 215 526 215q274 0 436 -139l-79 -131q-143 106 -355 106q-233 0 -383 -160t-149 -413q0 -256 155 -416q154 -158 404 -158q211 0 366 127l70 -131q-156 -160 -453 -159q-324 0 -524 200q-203 203 -203 537zM440 1722l68 95l295 -166l293 166 l61 -93l-350 -213h-8z" />
<glyph unicode="&#x10d;" horiz-adv-x="999" d="M86 461q0 203 133 342t334 139q242 0 362 -121l-75 -129q-104 96 -265 96q-129 0 -219 -90q-96 -96 -96 -237q0 -147 98 -240q92 -88 234 -88q160 0 264 119l78 -119q-119 -154 -354 -153q-221 0 -357 131q-137 133 -137 350zM272 1356l80 98l213 -211l213 209l76 -96 l-287 -273h-8z" />
<glyph unicode="&#x10e;" horiz-adv-x="1513" d="M215 0v1434l391 6q406 0 619 -211q186 -188 186 -494q0 -322 -205 -522q-223 -217 -616 -217zM328 1722l67 95l295 -166l293 166l61 -93l-350 -213h-8zM389 164l207 -4q299 0 469 162q162 156 162 413q0 242 -156 387q-168 154 -469 154l-213 -6v-1106z" />
<glyph unicode="&#x10f;" horiz-adv-x="1134" d="M86 455q0 215 143 352q141 135 361 135q141 0 233 -65v557h164v-1434h-164v117q-123 -133 -293 -133q-203 0 -323 129q-121 129 -121 342zM260 459q0 -150 86 -238q82 -84 215 -84q151 0 262 123v457q-113 72 -227 71q-141 0 -236 -88q-100 -94 -100 -241zM1096 1114 q96 82 96 223q0 55 -23 97h160q16 -33 17 -78q0 -221 -177 -314z" />
<glyph unicode="&#x110;" horiz-adv-x="1544" d="M20 647v154h226v633l391 6q406 0 618 -211q186 -188 187 -494q0 -322 -205 -522q-223 -217 -616 -217l-375 4v647h-226zM420 164l207 -4q299 0 469 162q162 156 161 413q0 242 -155 387q-168 154 -469 154l-213 -6v-469h385v-154h-385v-483z" />
<glyph unicode="&#x111;" horiz-adv-x="1134" d="M86 455q0 215 143 352q141 135 361 135q141 0 233 -65v217h-321v133h321v207h164v-207h189v-133h-189v-1094h-164v117q-123 -133 -293 -133q-203 0 -323 129q-121 129 -121 342zM260 459q0 -150 86 -238q82 -84 215 -84q151 0 262 123v457q-113 72 -227 71 q-141 0 -236 -88q-100 -94 -100 -241z" />
<glyph unicode="&#x112;" horiz-adv-x="1177" d="M215 0v1434h809v-164h-635v-463h574v-164h-574v-479h655v-164h-829zM307 1577v133h623v-133h-623z" />
<glyph unicode="&#x113;" horiz-adv-x="1064" d="M86 461q0 209 125 342q129 139 350 139q182 0 303 -115q125 -121 125 -307q0 -63 -10 -110h-709q10 -129 99 -203q86 -74 223 -74q180 0 282 96l52 -129q-133 -121 -346 -120q-223 0 -359 131q-135 131 -135 350zM260 543h559q-6 115 -76 180q-72 66 -190 65 q-123 1 -203 -69q-76 -68 -90 -176zM270 1188v133h541v-133h-541z" />
<glyph unicode="&#x116;" horiz-adv-x="1177" d="M215 0v1434h809v-164h-635v-463h574v-164h-574v-479h655v-164h-829zM512 1673q0 47 35 78q33 27 82 27q45 0 78 -27q33 -31 32 -78q0 -51 -32 -82q-33 -29 -78 -28q-117 0 -117 110z" />
<glyph unicode="&#x117;" horiz-adv-x="1064" d="M86 461q0 209 125 342q129 139 350 139q182 0 303 -115q125 -121 125 -307q0 -63 -10 -110h-709q10 -129 99 -203q86 -74 223 -74q180 0 282 96l52 -129q-133 -121 -346 -120q-223 0 -359 131q-135 131 -135 350zM260 543h559q-6 115 -76 180q-72 66 -190 65 q-123 1 -203 -69q-76 -68 -90 -176zM440 1268q0 42 33 71q29 27 74 27q41 0 69 -27q31 -29 31 -71q0 -49 -31 -78q-29 -29 -69 -29q-106 0 -107 107z" />
<glyph unicode="&#x118;" horiz-adv-x="1177" d="M215 0v1434h809v-164h-635v-463h574v-164h-574v-479h655v-164h-10q-94 -4 -162 -51q-72 -49 -71 -117q0 -109 123 -108q51 0 90 18l49 -100q-61 -51 -176 -52q-102 0 -170 41q-80 49 -80 148q0 152 201 221h-623z" />
<glyph unicode="&#x119;" horiz-adv-x="1064" d="M86 461q0 209 125 342q129 139 350 139q182 0 303 -115q125 -121 125 -307q0 -63 -10 -110h-709q10 -129 99 -203q86 -74 223 -74q180 0 282 96l52 -129q-66 -59 -152 -88q-137 -90 -137 -180q0 -109 125 -108q51 0 90 18l49 -100q-61 -51 -176 -52q-102 0 -170 41 q-82 49 -82 148q0 115 148 203l-41 -2q-223 0 -359 131q-135 131 -135 350zM260 543h559q-6 115 -76 180q-72 66 -190 65q-123 1 -203 -69q-76 -68 -90 -176z" />
<glyph unicode="&#x11a;" horiz-adv-x="1177" d="M215 0v1434h809v-164h-635v-463h574v-164h-574v-479h655v-164h-829zM276 1722l68 95l295 -166l293 166l61 -93l-350 -213h-8z" />
<glyph unicode="&#x11b;" horiz-adv-x="1064" d="M86 461q0 209 125 342q129 139 350 139q182 0 303 -115q125 -121 125 -307q0 -63 -10 -110h-709q10 -129 99 -203q86 -74 223 -74q180 0 282 96l52 -129q-133 -121 -346 -120q-223 0 -359 131q-135 131 -135 350zM260 543h559q-6 115 -76 180q-72 66 -190 65 q-123 1 -203 -69q-76 -68 -90 -176zM268 1356l80 98l213 -211l213 209l76 -96l-287 -273h-8z" />
<glyph unicode="&#x11c;" horiz-adv-x="1488" d="M102 717q0 315 193 522q197 215 512 215q274 0 450 -139l-75 -139q-127 115 -355 114q-242 0 -389 -157q-152 -158 -151 -416q0 -260 151 -418q150 -156 396 -156q238 0 368 127v295h-387v164h551v-551q-199 -199 -537 -198q-334 0 -530 200q-197 201 -197 537zM442 1593 l351 213h8l356 -211l-67 -94l-293 156l-295 -156z" />
<glyph unicode="&#x11d;" horiz-adv-x="1011" d="M20 -133q0 219 295 280q-23 29 -22 76q0 47 24 78q-207 84 -206 303q0 143 102 238q104 100 274 100q133 0 234 -68l270 66l4 -133l-174 -43q43 -70 43 -160q0 -141 -102 -235q-106 -96 -275 -97q-41 0 -61 2q-10 -20 -10 -51q0 -37 18 -61l55 2q211 0 336 -74 q133 -78 133 -223q0 -143 -133 -219q-125 -74 -336 -74t-335 72q-133 76 -134 221zM174 -133q0 -76 86 -119q84 -41 229 -41q315 0 316 160q0 76 -84 121q-84 43 -232 43q-147 0 -231 -43q-84 -45 -84 -121zM205 1176l289 272h8l284 -272l-77 -99l-213 187l-213 -185z M264 604q1 -86 62 -141q61 -57 161 -57q98 0 160 55q63 55 64 143q0 88 -60 146q-63 59 -164 59q-100 0 -161 -59q-61 -57 -62 -146z" />
<glyph unicode="&#x11e;" horiz-adv-x="1488" d="M102 717q0 315 193 522q197 215 512 215q274 0 450 -139l-75 -139q-127 115 -355 114q-242 0 -389 -157q-152 -158 -151 -416q0 -260 151 -418q150 -156 396 -156q238 0 368 127v295h-387v164h551v-551q-199 -199 -537 -198q-334 0 -530 200q-197 201 -197 537zM463 1716 l74 86q119 -133 292 -133q174 0 287 133l64 -86q-123 -190 -351 -190q-244 0 -366 190z" />
<glyph unicode="&#x11f;" horiz-adv-x="1011" d="M20 -133q0 219 295 280q-23 29 -22 76q0 47 24 78q-207 84 -206 303q0 143 102 238q104 100 274 100q133 0 234 -68l270 66l4 -133l-174 -43q43 -70 43 -160q0 -141 -102 -235q-106 -96 -275 -97q-41 0 -61 2q-10 -20 -10 -51q0 -37 18 -61l55 2q211 0 336 -74 q133 -78 133 -223q0 -143 -133 -219q-125 -74 -336 -74t-335 72q-133 76 -134 221zM174 -133q0 -76 86 -119q84 -41 229 -41q315 0 316 160q0 76 -84 121q-84 43 -232 43q-147 0 -231 -43q-84 -45 -84 -121zM188 1311l76 84q104 -125 234 -125q133 0 235 123l60 -80 q-127 -176 -301 -176q-190 0 -304 174zM264 604q1 -86 62 -141q61 -57 161 -57q98 0 160 55q63 55 64 143q0 88 -60 146q-63 59 -164 59q-100 0 -161 -59q-61 -57 -62 -146z" />
<glyph unicode="&#x120;" horiz-adv-x="1488" d="M102 717q0 315 193 522q197 215 512 215q274 0 450 -139l-75 -139q-127 115 -355 114q-242 0 -389 -157q-152 -158 -151 -416q0 -260 151 -418q150 -156 396 -156q238 0 368 127v295h-387v164h551v-551q-199 -199 -537 -198q-334 0 -530 200q-197 201 -197 537zM666 1673 q-1 47 34 78q33 27 82 27q45 0 78 -27q33 -31 33 -78q0 -51 -33 -82q-33 -29 -78 -28q-117 0 -116 110z" />
<glyph unicode="&#x121;" horiz-adv-x="1011" d="M20 -133q0 219 295 280q-23 29 -22 76q0 47 24 78q-207 84 -206 303q0 143 102 238q104 100 274 100q133 0 234 -68l270 66l4 -133l-174 -43q43 -70 43 -160q0 -141 -102 -235q-106 -96 -275 -97q-41 0 -61 2q-10 -20 -10 -51q0 -37 18 -61l55 2q211 0 336 -74 q133 -78 133 -223q0 -143 -133 -219q-125 -74 -336 -74t-335 72q-133 76 -134 221zM174 -133q0 -76 86 -119q84 -41 229 -41q315 0 316 160q0 76 -84 121q-84 43 -232 43q-147 0 -231 -43q-84 -45 -84 -121zM264 604q1 -86 62 -141q61 -57 161 -57q98 0 160 55q63 55 64 143 q0 88 -60 146q-63 59 -164 59q-100 0 -161 -59q-61 -57 -62 -146zM387 1268q0 42 33 71q29 27 74 27q41 0 69 -27q31 -29 31 -71q0 -49 -31 -78q-29 -29 -69 -29q-106 0 -107 107z" />
<glyph unicode="&#x122;" horiz-adv-x="1488" d="M102 717q0 315 193 522q197 215 512 215q274 0 450 -139l-75 -139q-127 115 -355 114q-242 0 -389 -157q-152 -158 -151 -416q0 -260 151 -418q150 -156 396 -156q238 0 368 127v295h-387v164h551v-551q-199 -199 -537 -198q-334 0 -530 200q-197 201 -197 537zM674 -344 q94 37 94 127q0 63 -49 84l153 39q59 -14 60 -101q0 -178 -211 -223z" />
<glyph unicode="&#x123;" horiz-adv-x="1011" d="M20 -133q0 219 295 280q-23 29 -22 76q0 47 24 78q-207 84 -206 303q0 143 102 238q104 100 274 100q133 0 234 -68l270 66l4 -133l-174 -43q43 -70 43 -160q0 -141 -102 -235q-106 -96 -275 -97q-41 0 -61 2q-10 -20 -10 -51q0 -37 18 -61l55 2q211 0 336 -74 q133 -78 133 -223q0 -143 -133 -219q-125 -74 -336 -74t-335 72q-133 76 -134 221zM174 -133q0 -76 86 -119q84 -41 229 -41q315 0 316 160q0 76 -84 121q-84 43 -232 43q-147 0 -231 -43q-84 -45 -84 -121zM264 604q1 -86 62 -141q61 -57 161 -57q98 0 160 55q63 55 64 143 q0 88 -60 146q-63 59 -164 59q-100 0 -161 -59q-61 -57 -62 -146zM371 1212q0 178 211 224l47 -74q-94 -37 -94 -127q0 -63 49 -84l-154 -39q-59 14 -59 100z" />
<glyph unicode="&#x124;" horiz-adv-x="1566" d="M215 0v1434h174v-621h789v621h174v-1434h-174v649h-789v-649h-174zM428 1593l350 213h8l357 -211l-68 -94l-293 156l-295 -156z" />
<glyph unicode="&#x125;" horiz-adv-x="1124" d="M-35 1593l350 213h9l356 -211l-68 -94l-293 156l-294 -156zM147 0v1434h164v-619q119 123 301 123q383 0 383 -410v-528h-164v506q0 279 -258 278q-160 0 -262 -116v-668h-164z" />
<glyph unicode="&#x126;" horiz-adv-x="1587" d="M51 1053v153h174v228h174v-228h789v228h174v-228h174v-153h-174v-1053h-174v649h-789v-649h-174v1053h-174zM399 813h789v240h-789v-240z" />
<glyph unicode="&#x127;" horiz-adv-x="1175" d="M-41 1065v154h240v215h163v-215h332v-154h-332v-250q119 123 302 123q383 0 383 -410v-528h-164v506q0 279 -258 278q-160 0 -263 -116v-668h-163v1065h-240z" />
<glyph unicode="&#x12a;" horiz-adv-x="686" d="M37 1577v133h622v-133h-622zM256 0v1434h174v-1434h-174z" />
<glyph unicode="&#x12b;" horiz-adv-x="548" d="M4 1188v133h541v-133h-541zM193 0v922h163v-922h-163z" />
<glyph unicode="&#x12e;" horiz-adv-x="686" d="M23 -221q0 168 233 231v1424h174v-1434h-10q-94 -4 -162 -51q-72 -49 -72 -117q0 -109 123 -108q51 0 90 18l50 -100q-61 -51 -177 -52q-102 0 -170 41q-80 49 -79 148z" />
<glyph unicode="&#x12f;" horiz-adv-x="548" d="M-53 -221q0 172 246 233v910h163v-922h-12q-94 -4 -162 -51q-72 -49 -71 -117q0 -109 122 -108q51 0 91 18l49 -100q-61 -51 -176 -52q-102 0 -170 41q-80 49 -80 148zM166 1268q0 42 33 71q29 27 73 27q41 0 70 -27q31 -29 31 -71q0 -49 -31 -78q-29 -29 -70 -29 q-106 0 -106 107z" />
<glyph unicode="&#x130;" horiz-adv-x="686" d="M229 1673q0 47 35 78q33 27 82 27q45 0 78 -27q33 -31 33 -78q0 -51 -33 -82q-33 -29 -78 -28q-117 0 -117 110zM256 0v1434h174v-1434h-174z" />
<glyph unicode="&#x131;" horiz-adv-x="548" d="M193 0v922h163v-922h-163z" />
<glyph unicode="&#x134;" horiz-adv-x="765" d="M20 55l60 133q59 -45 135 -45q162 0 162 211v1080h174v-1108q0 -346 -313 -346q-141 0 -218 75zM96 1593l350 213h9l356 -211l-68 -94l-292 156l-295 -156z" />
<glyph unicode="&#x135;" horiz-adv-x="544" d="M-129 -367l47 131q59 -37 121 -36q162 0 162 217v977h164v-990q0 -358 -289 -358q-129 0 -205 59zM-8 1176l289 272h8l284 -272l-77 -99l-213 187l-213 -185z" />
<glyph unicode="&#x136;" horiz-adv-x="1337" d="M215 0v1434h174v-1434h-174zM424 748l629 686h211l-639 -674l671 -760h-223zM510 -344q94 37 94 127q0 63 -49 84l154 39q59 -14 59 -101q0 -178 -211 -223z" />
<glyph unicode="&#x137;" horiz-adv-x="1005" d="M147 0v1434h164v-1434h-164zM334 -344q94 37 94 127q0 63 -49 84l153 39q59 -14 60 -101q0 -178 -211 -223zM346 481l381 441h209l-391 -428l440 -494h-223z" />
<glyph unicode="&#x139;" horiz-adv-x="1126" d="M215 0v1434h174v-1270h707v-164h-881zM436 1604l400 213l61 -140l-414 -172z" />
<glyph unicode="&#x13a;" horiz-adv-x="593" d="M143 1604l400 213l61 -140l-414 -172zM147 246v1188h164v-1115q0 -182 109 -182q55 0 117 41l36 -125q-88 -70 -217 -69q-209 0 -209 262z" />
<glyph unicode="&#x13b;" horiz-adv-x="1126" d="M215 0v1434h174v-1270h707v-164h-881zM489 -344q94 37 95 127q0 63 -49 84l153 39q59 -14 60 -101q0 -178 -211 -223z" />
<glyph unicode="&#x13c;" horiz-adv-x="593" d="M147 246v1188h164v-1115q0 -182 109 -182q55 0 117 41l36 -125q-88 -70 -217 -69q-209 0 -209 262zM197 -344q94 37 94 127q0 63 -49 84l153 39q59 -14 60 -101q0 -178 -211 -223z" />
<glyph unicode="&#x13d;" horiz-adv-x="1126" d="M215 0v1434h174v-1270h707v-164h-881zM655 1114q96 82 97 223q0 55 -23 97h160q16 -33 16 -78q0 -221 -176 -314z" />
<glyph unicode="&#x13e;" horiz-adv-x="593" d="M147 246v1188h164v-1115q0 -182 109 -182q55 0 117 41l36 -125q-88 -70 -217 -69q-209 0 -209 262zM430 1114q96 82 96 223q0 55 -22 97h160q16 -33 16 -78q0 -221 -176 -314z" />
<glyph unicode="&#x13f;" horiz-adv-x="1126" d="M215 0v1434h174v-1270h707v-164h-881zM754 766q-1 43 30 74q35 35 86 34q45 0 78 -34q31 -33 31 -74q0 -47 -31 -82t-78 -35q-51 0 -86 35q-31 35 -30 82z" />
<glyph unicode="&#x140;" horiz-adv-x="663" d="M147 246v1188h164v-1115q0 -182 109 -182q55 0 117 41l36 -125q-88 -70 -217 -69q-209 0 -209 262zM463 668q0 42 33 71q29 27 73 27q41 0 70 -27q31 -29 31 -71q0 -49 -31 -78q-29 -29 -70 -29q-106 0 -106 107z" />
<glyph unicode="&#x141;" horiz-adv-x="1146" d="M51 449v169l185 89v727h174v-643l360 176v-168l-360 -176v-459h706v-164h-880v539z" />
<glyph unicode="&#x142;" horiz-adv-x="655" d="M31 455v170l157 75v734h164v-656l215 105v-168l-215 -105v-291q0 -182 109 -182q55 0 117 41l36 -125q-88 -70 -217 -69q-209 0 -209 262v284z" />
<glyph unicode="&#x143;" horiz-adv-x="1628" d="M215 0v1434h139l895 -1131v1131h164v-1434h-139l-895 1126v-1126h-164zM692 1604l400 213l61 -140l-414 -172z" />
<glyph unicode="&#x144;" horiz-adv-x="1124" d="M147 0v922h164v-113q117 129 301 129q383 0 383 -406v-532h-164v502q0 283 -260 282q-156 0 -260 -118v-666h-164zM457 1157l217 322l127 -99l-246 -293z" />
<glyph unicode="&#x145;" horiz-adv-x="1628" d="M215 0v1434h139l895 -1131v1131h164v-1434h-139l-895 1126v-1126h-164zM664 -344q94 37 94 127q0 63 -49 84l153 39q59 -14 60 -101q0 -178 -211 -223z" />
<glyph unicode="&#x146;" horiz-adv-x="1124" d="M147 0v922h164v-113q117 129 301 129q383 0 383 -406v-532h-164v502q0 283 -260 282q-156 0 -260 -118v-666h-164zM414 -344q94 37 94 127q0 63 -49 84l153 39q59 -14 60 -101q0 -178 -211 -223z" />
<glyph unicode="&#x147;" horiz-adv-x="1628" d="M215 0v1434h139l895 -1131v1131h164v-1434h-139l-895 1126v-1126h-164zM455 1722l67 95l295 -166l293 166l61 -93l-350 -213h-8z" />
<glyph unicode="&#x148;" horiz-adv-x="1124" d="M147 0v922h164v-113q117 129 301 129q383 0 383 -406v-532h-164v502q0 283 -260 282q-156 0 -260 -118v-666h-164zM268 1356l80 98l213 -211l213 209l76 -96l-287 -273h-8z" />
<glyph unicode="&#x14c;" horiz-adv-x="1667" d="M102 717q0 313 207 524q207 213 525 213q315 0 522 -205q209 -209 209 -532q0 -317 -209 -529q-209 -209 -522 -208q-315 0 -523 204q-209 209 -209 533zM287 717q-1 -244 157 -410q158 -164 390 -164q242 0 397 166q150 162 149 408q0 248 -157 411q-158 162 -389 162 q-236 0 -390 -162q-158 -162 -157 -411zM532 1577v133h623v-133h-623z" />
<glyph unicode="&#x14d;" horiz-adv-x="1157" d="M86 461q0 209 135 344q137 137 357 137q219 0 356 -137q135 -135 135 -344t-135 -344q-137 -137 -356 -137t-357 137q-135 135 -135 344zM260 461q0 -144 90 -236q88 -92 228 -92q139 0 227 90q90 92 90 238q0 143 -90 235q-88 92 -227 92q-137 0 -226 -90 q-92 -92 -92 -237zM317 1188v133h541v-133h-541z" />
<glyph unicode="&#x150;" horiz-adv-x="1667" d="M102 717q0 313 207 524q207 213 525 213q315 0 522 -205q209 -209 209 -532q0 -317 -209 -529q-209 -209 -522 -208q-315 0 -523 204q-209 209 -209 533zM287 717q-1 -244 157 -410q158 -164 390 -164q242 0 397 166q150 162 149 408q0 248 -157 411q-158 162 -389 162 q-236 0 -390 -162q-158 -162 -157 -411zM557 1571l262 246l137 -74l-329 -238zM922 1577l321 240l113 -105l-367 -207z" />
<glyph unicode="&#x151;" horiz-adv-x="1157" d="M86 461q0 209 135 344q137 137 357 137q219 0 356 -137q135 -135 135 -344t-135 -344q-137 -137 -356 -137t-357 137q-135 135 -135 344zM260 461q0 -144 90 -236q88 -92 228 -92q139 0 227 90q90 92 90 238q0 143 -90 235q-88 92 -227 92q-137 0 -226 -90 q-92 -92 -92 -237zM322 1157l210 324l119 -88l-231 -306zM639 1157l233 309l121 -92l-256 -287z" />
<glyph unicode="&#x152;" horiz-adv-x="2134" d="M102 717q0 317 189 522q199 215 526 215q203 0 354 -82v62h809v-164h-634v-463h573v-164h-573v-479h655v-164h-830v57q-145 -78 -342 -77q-324 0 -524 200q-203 203 -203 537zM287 717q0 -256 155 -416q154 -158 404 -158q184 1 325 95v946q-143 106 -352 106 q-233 0 -383 -160t-149 -413z" />
<glyph unicode="&#x153;" horiz-adv-x="1714" d="M86 461q0 209 135 344q137 137 357 137q190 0 319 -106q129 106 315 106q182 0 304 -115q123 -121 122 -307q0 -63 -10 -110h-706q8 -129 96 -203t225 -74q178 0 281 96l51 -129q-129 -121 -344 -120q-201 0 -330 104q-129 -104 -323 -104q-219 0 -357 137 q-135 135 -135 344zM260 461q0 -143 90 -236q88 -92 228 -92q133 0 219 76q-59 106 -60 252q0 139 60 252q-90 76 -219 75q-137 0 -228 -90q-90 -92 -90 -237zM911 543h559q-8 115 -77 180q-72 66 -191 65q-123 1 -201 -69q-76 -68 -90 -176z" />
<glyph unicode="&#x154;" horiz-adv-x="1316" d="M215 0v1434l385 4q510 0 510 -426q0 -158 -96 -271q-86 -102 -215 -135l477 -606h-213l-440 573h-234v-573h-174zM389 737h211q131 0 225 72q100 78 101 201q0 264 -336 264q-66 0 -201 -4v-533zM426 1604l399 213l62 -140l-414 -172z" />
<glyph unicode="&#x155;" horiz-adv-x="696" d="M147 0v922h164v-109q84 125 232 125q96 0 143 -35l-57 -153q-59 35 -125 34q-125 0 -193 -131v-653h-164zM281 1157l217 322l127 -99l-246 -293z" />
<glyph unicode="&#x156;" horiz-adv-x="1316" d="M215 0v1434l385 4q510 0 510 -426q0 -158 -96 -271q-86 -102 -215 -135l477 -606h-213l-440 573h-234v-573h-174zM389 737h211q131 0 225 72q100 78 101 201q0 264 -336 264q-66 0 -201 -4v-533zM500 -344q94 37 94 127q0 63 -49 84l153 39q59 -14 60 -101 q0 -178 -211 -223z" />
<glyph unicode="&#x157;" horiz-adv-x="696" d="M147 0v922h164v-109q84 125 232 125q96 0 143 -35l-57 -153q-59 35 -125 34q-125 0 -193 -131v-653h-164zM178 -344q94 37 94 127q0 63 -49 84l154 39q59 -14 59 -101q0 -178 -211 -223z" />
<glyph unicode="&#x158;" horiz-adv-x="1316" d="M215 0v1434l385 4q510 0 510 -426q0 -158 -96 -271q-86 -102 -215 -135l477 -606h-213l-440 573h-234v-573h-174zM236 1722l67 95l295 -166l293 166l61 -93l-350 -213h-8zM389 737h211q131 0 225 72q100 78 101 201q0 264 -336 264q-66 0 -201 -4v-533z" />
<glyph unicode="&#x159;" horiz-adv-x="696" d="M104 1356l80 98l213 -211l213 209l76 -96l-287 -273h-8zM147 0v922h164v-109q84 125 232 125q96 0 143 -35l-57 -153q-59 35 -125 34q-125 0 -193 -131v-653h-164z" />
<glyph unicode="&#x15a;" horiz-adv-x="1124" d="M102 195l101 118q129 -170 354 -170q119 0 197 58q84 61 84 166q0 114 -109 192q-53 37 -242 117q-168 72 -241 141q-109 102 -109 262t115 264q119 111 317 111q260 0 396 -149l-95 -131q-117 117 -290 116q-119 0 -189 -57t-69 -154q0 -117 108 -192q51 -33 242 -113 q168 -68 241 -137q109 -104 109 -268q0 -174 -135 -283q-133 -106 -332 -106q-139 0 -266 57q-135 59 -187 158zM442 1604l400 213l61 -140l-414 -172z" />
<glyph unicode="&#x15b;" horiz-adv-x="880" d="M92 123l92 117q100 -117 267 -117q70 0 114 33q49 35 49 94q1 61 -77 98q-14 8 -170 62q-250 84 -250 272q0 119 88 190q86 70 225 70q205 0 318 -108l-78 -125q-100 90 -232 90q-68 0 -108 -35q-39 -33 -39 -80q0 -63 78 -102q23 -12 172 -62q248 -84 247 -262 q0 -137 -108 -213q-96 -66 -248 -65q-106 0 -209 47q-96 43 -131 96zM324 1157l217 322l127 -99l-246 -293z" />
<glyph unicode="&#x15c;" horiz-adv-x="1124" d="M102 195l101 118q129 -170 354 -170q119 0 197 58q84 61 84 166q0 114 -109 192q-53 37 -242 117q-168 72 -241 141q-109 102 -109 262t115 264q119 111 317 111q260 0 396 -149l-95 -131q-117 117 -290 116q-119 0 -189 -57t-69 -154q0 -117 108 -192q51 -33 242 -113 q168 -68 241 -137q109 -104 109 -268q0 -174 -135 -283q-133 -106 -332 -106q-139 0 -266 57q-135 59 -187 158zM203 1593l350 213h8l357 -211l-68 -94l-293 156l-295 -156z" />
<glyph unicode="&#x15d;" horiz-adv-x="880" d="M92 123l92 117q100 -117 267 -117q70 0 114 33q49 35 49 94q1 61 -77 98q-14 8 -170 62q-250 84 -250 272q0 119 88 190q86 70 225 70q205 0 318 -108l-78 -125q-100 90 -232 90q-68 0 -108 -35q-39 -33 -39 -80q0 -63 78 -102q23 -12 172 -62q248 -84 247 -262 q0 -137 -108 -213q-96 -66 -248 -65q-106 0 -209 47q-96 43 -131 96zM152 1176l288 272h9l284 -272l-78 -99l-213 187l-213 -185z" />
<glyph unicode="&#x15e;" horiz-adv-x="1124" d="M102 195l101 118q129 -170 354 -170q119 0 197 58q84 61 84 166q0 115 -109 192q-53 37 -242 117q-168 72 -241 141q-109 102 -109 262t115 264q119 111 317 111q260 0 396 -149l-95 -131q-117 117 -290 116q-119 0 -189 -57t-69 -154q0 -117 108 -192q51 -33 242 -113 q168 -68 241 -137q109 -104 109 -268q0 -166 -125 -273q-123 -104 -309 -114v-70q217 -12 217 -164q0 -76 -68 -121q-68 -47 -184 -47q-131 0 -242 74l54 86q82 -57 151 -57q115 0 115 73q0 80 -119 80h-12v146q-299 27 -398 213z" />
<glyph unicode="&#x15f;" horiz-adv-x="880" d="M92 123l92 117q100 -117 267 -117q70 0 114 33q49 35 49 94q0 61 -77 98q-14 8 -170 62q-250 84 -250 272q0 119 88 190q86 70 225 70q205 0 318 -108l-78 -125q-100 90 -232 90q-68 0 -108 -35q-39 -33 -39 -80q0 -63 78 -102q23 -12 172 -62q248 -84 247 -262 q0 -131 -100 -207q-88 -66 -229 -71v-68q207 -12 207 -164q0 -76 -68 -121q-70 -47 -190 -47q-111 0 -215 70l49 80q72 -47 145 -47q115 0 115 73q0 80 -119 80h-12v148q-207 27 -279 139z" />
<glyph unicode="&#x160;" horiz-adv-x="1124" d="M102 195l101 118q129 -170 354 -170q119 0 197 58q84 61 84 166q0 114 -109 192q-53 37 -242 117q-168 72 -241 141q-109 102 -109 262t115 264q119 111 317 111q260 0 396 -149l-95 -131q-117 117 -290 116q-119 0 -189 -57t-69 -154q0 -117 108 -192q51 -33 242 -113 q168 -68 241 -137q109 -104 109 -268q0 -174 -135 -283q-133 -106 -332 -106q-139 0 -266 57q-135 59 -187 158zM211 1722l68 95l294 -166l293 166l62 -93l-350 -213h-9z" />
<glyph unicode="&#x161;" horiz-adv-x="880" d="M92 123l92 117q100 -117 267 -117q70 0 114 33q49 35 49 94q1 61 -77 98q-14 8 -170 62q-250 84 -250 272q0 119 88 190q86 70 225 70q205 0 318 -108l-78 -125q-100 90 -232 90q-68 0 -108 -35q-39 -33 -39 -80q0 -63 78 -102q23 -12 172 -62q248 -84 247 -262 q0 -137 -108 -213q-96 -66 -248 -65q-106 0 -209 47q-96 43 -131 96zM147 1356l80 98l213 -211l213 209l76 -96l-287 -273h-8z" />
<glyph unicode="&#x162;" horiz-adv-x="1218" d="M20 1270v164h1178v-164h-502v-1270h-43v-88q217 -12 217 -164q0 -76 -67 -121q-68 -47 -185 -47q-131 0 -241 74l53 86q82 -57 152 -57q115 0 114 73q0 80 -118 80h-13v164h-43v1270h-502z" />
<glyph unicode="&#x163;" horiz-adv-x="722" d="M127 350v828h164v-256h338v-154h-338v-401q0 -229 164 -230q78 0 145 51l51 -127q-94 -78 -235 -77h-13v-72q207 -12 207 -164q0 -76 -67 -121q-70 -47 -191 -47q-111 0 -215 70l49 80q72 -47 146 -47q115 0 114 73q0 80 -118 80h-13v162q-188 51 -188 352z" />
<glyph unicode="&#x164;" horiz-adv-x="1218" d="M20 1270v164h1178v-164h-502v-1270h-174v1270h-502zM244 1722l67 95l295 -166l293 166l62 -93l-351 -213h-8z" />
<glyph unicode="&#x165;" horiz-adv-x="722" d="M127 350v828h164v-256h338v-154h-338v-401q0 -229 164 -230q78 0 145 51l51 -127q-94 -78 -235 -77q-289 0 -289 366zM430 1114q96 82 96 223q0 55 -22 97h160q16 -33 16 -78q0 -221 -176 -314z" />
<glyph unicode="&#x16a;" horiz-adv-x="1538" d="M195 612v822h174v-789q0 -236 108 -366q111 -133 311 -134q180 0 279 121q102 127 102 367v801h174v-836q0 -309 -167 -473q-147 -143 -388 -143q-268 0 -426 157q-168 168 -167 473zM467 1577v133h623v-133h-623z" />
<glyph unicode="&#x16b;" horiz-adv-x="1105" d="M127 373v549h164v-512q0 -276 237 -277q158 0 265 137v652h163v-922h-163v131q-123 -152 -326 -151q-340 0 -340 393zM276 1188v133h541v-133h-541z" />
<glyph unicode="&#x16c;" horiz-adv-x="1538" d="M195 612v822h174v-789q0 -236 108 -366q111 -133 311 -134q180 0 279 121q102 127 102 367v801h174v-836q0 -309 -167 -473q-147 -143 -388 -143q-268 0 -426 157q-168 168 -167 473zM406 1716l73 86q119 -133 293 -133t287 133l63 -86q-123 -190 -350 -190 q-244 0 -366 190z" />
<glyph unicode="&#x16d;" horiz-adv-x="1105" d="M127 373v549h164v-512q0 -276 237 -277q158 0 265 137v652h163v-922h-163v131q-123 -152 -326 -151q-340 0 -340 393zM244 1311l75 84q104 -125 234 -125q133 0 235 123l60 -80q-127 -176 -301 -176q-190 0 -303 174z" />
<glyph unicode="&#x16e;" horiz-adv-x="1538" d="M195 612v822h174v-789q0 -236 108 -366q111 -133 311 -134q180 0 279 121q102 127 102 367v801h174v-836q0 -309 -167 -473q-147 -143 -388 -143q-268 0 -426 157q-168 168 -167 473zM514 1622q0 99 76 150q66 47 178 47q258 0 258 -197q0 -98 -76 -154q-70 -51 -182 -51 q-111 0 -178 51q-76 55 -76 154zM637 1622q0 -113 133 -113t133 113q0 104 -133 104t-133 -104z" />
<glyph unicode="&#x16f;" horiz-adv-x="1105" d="M127 373v549h164v-512q0 -276 237 -277q158 0 265 137v652h163v-922h-163v131q-123 -152 -326 -151q-340 0 -340 393zM311 1255q0 94 68 160q68 68 166 68q100 0 170 -68q68 -66 67 -160q0 -94 -67 -159q-70 -66 -170 -66q-98 0 -166 66t-68 159zM418 1257q0 -57 37 -96 t92 -39t92 39t37 96q0 55 -37 95q-37 39 -92 39t-92 -39t-37 -95z" />
<glyph unicode="&#x170;" horiz-adv-x="1538" d="M195 612v822h174v-789q0 -236 108 -366q111 -133 311 -134q180 0 279 121q102 127 102 367v801h174v-836q0 -309 -167 -473q-147 -143 -388 -143q-268 0 -426 157q-168 168 -167 473zM465 1571l262 246l137 -74l-329 -238zM829 1577l322 240l113 -105l-367 -207z" />
<glyph unicode="&#x171;" horiz-adv-x="1105" d="M127 373v549h164v-512q0 -276 237 -277q158 0 265 137v652h163v-922h-163v131q-123 -152 -326 -151q-340 0 -340 393zM291 1157l211 324l119 -88l-232 -306zM608 1157l234 309l121 -92l-256 -287z" />
<glyph unicode="&#x172;" horiz-adv-x="1538" d="M195 612v822h174v-789q0 -236 108 -366q111 -133 311 -134q180 0 279 121q102 127 102 367v801h174v-836q0 -256 -116 -414q-104 -141 -285 -184q-156 -74 -156 -168q0 -109 123 -108q51 0 90 18l50 -100q-61 -51 -177 -52q-102 0 -170 41q-80 49 -79 148q0 125 163 203 q-266 0 -424 157q-168 168 -167 473z" />
<glyph unicode="&#x173;" horiz-adv-x="1105" d="M127 373v549h164v-512q0 -276 237 -277q158 0 265 137v652h163v-922h-10q-94 -4 -162 -51q-72 -49 -71 -117q0 -109 123 -108q51 0 90 18l49 -100q-61 -51 -176 -52q-102 0 -170 41q-80 49 -80 148q0 174 244 233v119q-123 -152 -326 -151q-340 0 -340 393z" />
<glyph unicode="&#x178;" horiz-adv-x="1236" d="M20 1434h201l402 -656l403 656h191l-515 -820v-614h-174v614zM270 1665q0 92 113 92q43 0 74 -24q33 -27 32 -68q0 -45 -32 -74q-31 -25 -74 -24q-113 0 -113 98zM745 1665q0 92 115 92q104 0 105 -92q0 -98 -105 -98q-115 0 -115 98z" />
<glyph unicode="&#x179;" horiz-adv-x="1300" d="M82 0v117l876 1153h-835v164h1075v-117l-881 -1153h902v-164h-1137zM518 1604l400 213l61 -140l-414 -172z" />
<glyph unicode="&#x17a;" horiz-adv-x="993" d="M92 0v115l576 653h-545v154h778v-115l-577 -653h567v-154h-799zM391 1157l217 322l127 -99l-246 -293z" />
<glyph unicode="&#x17b;" horiz-adv-x="1300" d="M82 0v117l876 1153h-835v164h1075v-117l-881 -1153h902v-164h-1137zM532 1673q0 47 35 78q33 27 82 27q45 0 78 -27q33 -31 33 -78q0 -51 -33 -82q-33 -29 -78 -28q-117 0 -117 110z" />
<glyph unicode="&#x17c;" horiz-adv-x="993" d="M92 0v115l576 653h-545v154h778v-115l-577 -653h567v-154h-799zM387 1268q0 42 33 71q29 27 74 27q41 0 69 -27q31 -29 31 -71q0 -49 -31 -78q-29 -29 -69 -29q-106 0 -107 107z" />
<glyph unicode="&#x17d;" horiz-adv-x="1300" d="M82 0v117l876 1153h-835v164h1075v-117l-881 -1153h902v-164h-1137zM297 1722l68 95l294 -166l293 166l62 -93l-350 -213h-9z" />
<glyph unicode="&#x17e;" horiz-adv-x="993" d="M92 0v115l576 653h-545v154h778v-115l-577 -653h567v-154h-799zM215 1356l80 98l213 -211l213 209l76 -96l-287 -273h-8z" />
<glyph unicode="&#x17f;" horiz-adv-x="522" d="M168 0v1071q0 383 324 383q160 0 245 -82l-57 -125q-63 53 -162 53q-186 0 -186 -247v-1053h-164z" />
<glyph unicode="&#x18f;" horiz-adv-x="1595" d="M96 813h1207q-27 223 -179 350q-154 127 -391 127q-213 0 -362 -116l-70 131q174 150 471 149q324 0 520 -199q199 -201 199 -534q0 -330 -193 -535q-195 -207 -518 -206q-328 0 -518 229q-193 231 -166 604zM276 649q10 -215 142 -356q139 -150 360 -150q228 1 371 140 q137 135 160 366h-1033z" />
<glyph unicode="&#x192;" d="M47 -367l45 131q59 -37 121 -36q158 0 197 221l145 819h-285v154h312l26 149q37 201 115 289q82 94 231 94q162 0 248 -82l-57 -125q-63 53 -162 53q-164 0 -211 -247l-24 -131h294v-154h-321l-148 -836q-33 -182 -98 -264q-78 -94 -223 -94q-133 0 -205 59z" />
<glyph unicode="&#x1dd;" horiz-adv-x="1064" d="M76 401q0 74 10 121h709q-6 117 -86 191q-82 76 -215 75q-190 0 -293 -96l-51 127q135 123 356 123t348 -131q125 -129 125 -350q0 -209 -123 -342q-129 -139 -346 -139q-186 0 -309 114q-125 119 -125 307zM246 389q10 -256 272 -256q119 0 199 74q78 70 88 182h-559z " />
<glyph unicode="&#x218;" horiz-adv-x="1124" d="M102 195l101 118q129 -170 354 -170q119 0 197 58q84 61 84 166q0 114 -109 192q-53 37 -242 117q-168 72 -241 141q-109 102 -109 262t115 264q119 111 317 111q260 0 396 -149l-95 -131q-117 117 -290 116q-119 0 -189 -57t-69 -154q0 -117 108 -192q51 -33 242 -113 q168 -68 241 -137q109 -104 109 -268q0 -174 -135 -283q-133 -106 -332 -106q-139 0 -266 57q-135 59 -187 158zM424 -344q94 37 94 127q0 63 -49 84l154 39q59 -14 59 -101q0 -178 -211 -223z" />
<glyph unicode="&#x219;" horiz-adv-x="880" d="M92 123l92 117q100 -117 267 -117q70 0 114 33q49 35 49 94q1 61 -77 98q-14 8 -170 62q-250 84 -250 272q0 119 88 190q86 70 225 70q205 0 318 -108l-78 -125q-100 90 -232 90q-68 0 -108 -35q-39 -33 -39 -80q0 -63 78 -102q23 -12 172 -62q248 -84 247 -262 q0 -137 -108 -213q-96 -66 -248 -65q-106 0 -209 47q-96 43 -131 96zM303 -344q94 37 94 127q0 63 -49 84l154 39q59 -14 59 -101q0 -178 -211 -223z" />
<glyph unicode="&#x21a;" horiz-adv-x="1218" d="M20 1270v164h1178v-164h-502v-1270h-174v1270h-502zM459 -344q94 37 94 127q0 63 -49 84l153 39q59 -14 60 -101q0 -178 -211 -223z" />
<glyph unicode="&#x21b;" horiz-adv-x="722" d="M127 350v828h164v-256h338v-154h-338v-401q0 -229 164 -230q78 0 145 51l51 -127q-94 -78 -235 -77q-289 0 -289 366zM227 -344q94 37 95 127q0 63 -50 84l154 39q59 -14 59 -101q0 -178 -211 -223z" />
<glyph unicode="&#x2c6;" horiz-adv-x="827" d="M123 1176l289 272h8l285 -272l-78 -99l-213 187l-213 -185z" />
<glyph unicode="&#x2da;" horiz-adv-x="716" d="M123 1255q-1 94 67 160q68 68 166 68q100 0 170 -68q68 -66 68 -160t-68 -159q-70 -66 -170 -66q-98 0 -166 66t-67 159zM229 1257q0 -57 37 -96t92 -39t93 39q37 39 36 96q0 55 -36 95q-37 39 -93 39q-55 0 -92 -39t-37 -95z" />
<glyph unicode="&#x2dc;" horiz-adv-x="905" d="M123 1217q109 123 225 122q49 0 121 -45q70 -45 111 -45q59 0 145 72l57 -84q-115 -121 -217 -121q-45 0 -116 45q-70 45 -117 45q-55 0 -142 -65z" />
<glyph unicode="&#x401;" horiz-adv-x="1177" d="M215 0v1434h809v-164h-635v-463h574v-164h-574v-479h655v-164h-829zM285 1665q-1 92 112 92q43 0 74 -24q33 -27 33 -68q0 -45 -33 -74q-31 -25 -74 -24q-113 0 -112 98zM760 1665q-1 92 114 92q104 0 105 -92q0 -98 -105 -98q-115 0 -114 98z" />
<glyph unicode="&#x402;" horiz-adv-x="1560" d="M20 1270v164h1178v-164h-502v-506q154 102 334 102q428 0 428 -448q0 -438 -356 -438q-150 0 -215 75l59 133q59 -45 135 -45q203 0 203 271q0 289 -287 288q-141 0 -301 -98v-604h-174v1270h-502z" />
<glyph unicode="&#x403;" horiz-adv-x="1034" d="M215 0v1434h799v-164h-625v-1270h-174zM528 1604l400 213l61 -140l-414 -172z" />
<glyph unicode="&#x404;" horiz-adv-x="1386" d="M102 717q0 326 199 530q201 207 520 207q297 0 471 -149l-80 -131q-150 117 -362 116q-236 0 -389 -129q-150 -129 -178 -348h706v-164h-710q23 -238 188 -375q158 -131 393 -131q213 0 387 131l68 -145q-186 -150 -469 -149q-336 0 -539 200q-205 201 -205 537z" />
<glyph unicode="&#x405;" horiz-adv-x="1124" d="M102 195l101 118q129 -170 354 -170q119 0 197 58q84 61 84 166q0 114 -109 192q-53 37 -242 117q-168 72 -241 141q-109 102 -109 262t115 264q119 111 317 111q260 0 396 -149l-95 -131q-117 117 -290 116q-119 0 -189 -57t-69 -154q0 -117 108 -192q51 -33 242 -113 q168 -68 241 -137q109 -104 109 -268q0 -174 -135 -283q-133 -106 -332 -106q-139 0 -266 57q-135 59 -187 158z" />
<glyph unicode="&#x406;" horiz-adv-x="686" d="M256 0v1434h174v-1434h-174z" />
<glyph unicode="&#x407;" horiz-adv-x="686" d="M88 1665q0 92 98 92q94 0 95 -92q0 -98 -95 -98q-98 0 -98 98zM256 0v1434h174v-1434h-174zM408 1665q0 92 98 92q94 0 94 -92q0 -98 -94 -98q-98 0 -98 98z" />
<glyph unicode="&#x408;" horiz-adv-x="765" d="M20 55l60 133q59 -45 135 -45q162 0 162 211v1080h174v-1108q0 -346 -313 -346q-141 0 -218 75z" />
<glyph unicode="&#x409;" horiz-adv-x="2095" d="M51 0l2 174q113 -10 185 133q113 225 155 840l21 287h858v-533q129 10 190 10q264 0 402 -118q129 -115 129 -324q0 -225 -152 -350q-150 -123 -418 -123l-325 4v1270h-520l-25 -271q-57 -627 -199 -852q-106 -172 -303 -147zM1272 166l172 -6q365 0 364 305 q0 283 -358 283q-69 -1 -178 -13v-569z" />
<glyph unicode="&#x40a;" horiz-adv-x="2154" d="M215 0v1434h174v-572h768v572h174v-564q129 10 191 11q264 0 401 -117q129 -111 129 -311q0 -215 -151 -336q-150 -121 -418 -121l-326 4v698h-768v-698h-174zM1331 166l172 -6q365 0 365 291q0 266 -359 266q-70 0 -178 -12v-539z" />
<glyph unicode="&#x40b;" horiz-adv-x="1560" d="M20 1270v164h1178v-164h-502v-506q143 102 344 102q184 0 293 -104q125 -119 125 -354v-408h-174v362q0 340 -291 340q-147 0 -297 -98v-604h-174v1270h-502z" />
<glyph unicode="&#x40c;" horiz-adv-x="1337" d="M215 0v1434h174v-1434h-174zM424 748l629 686h211l-639 -674l671 -760h-223zM590 1604l399 213l62 -140l-414 -172z" />
<glyph unicode="&#x40e;" horiz-adv-x="1363" d="M31 1434h196l537 -899l393 899h176l-495 -1106q-147 -328 -357 -328q-109 0 -174 51l62 148q53 -37 110 -37q106 0 176 145l25 53zM326 1761h163q49 -133 220 -133q180 0 211 133h163q-14 -115 -120 -186q-104 -70 -254 -70q-158 0 -263 72q-102 70 -120 184z" />
<glyph unicode="&#x40f;" horiz-adv-x="1536" d="M215 0v1434h174v-1270h758v1270h174v-1434h-473v-317h-164v317h-469z" />
<glyph unicode="&#x410;" horiz-adv-x="1443" d="M31 0l616 1442h150l616 -1442h-186l-185 434h-653l-182 -434h-176zM459 598h516l-258 612z" />
<glyph unicode="&#x411;" horiz-adv-x="1253" d="M215 0v1434h811v-164h-637v-412q109 12 219 12q238 0 371 -114q131 -111 131 -307q0 -221 -145 -340q-145 -117 -406 -117q-80 0 -194 4q-115 4 -150 4zM389 164q127 -8 197 -8q350 0 350 280q0 125 -82 195q-90 76 -256 76q-94 -1 -209 -13v-530z" />
<glyph unicode="&#x412;" horiz-adv-x="1263" d="M215 2v1430q319 8 393 8q461 0 461 -355q0 -252 -246 -331v-4q297 -47 297 -340q0 -209 -149 -318q-135 -98 -371 -98q-217 0 -385 8zM389 166q94 -8 221 -8q336 0 336 262q0 233 -325 233h-232v-487zM389 807h229q119 0 195 61q82 66 82 179q0 229 -291 229 q-61 0 -215 -6v-463z" />
<glyph unicode="&#x413;" horiz-adv-x="1034" d="M215 0v1434h799v-164h-625v-1270h-174z" />
<glyph unicode="&#x414;" horiz-adv-x="1533" d="M31 164h153q199 246 236 983l14 287h844v-1270h195v-430h-164v266h-1114v-266h-164v430zM377 164h727v1106h-502l-18 -256q-45 -651 -207 -850z" />
<glyph unicode="&#x415;" horiz-adv-x="1177" d="M215 0v1434h809v-164h-635v-463h574v-164h-574v-479h655v-164h-829z" />
<glyph unicode="&#x416;" horiz-adv-x="1912" d="M41 0l602 748l-580 686h203l568 -686l-590 -748h-203zM868 0v1434h174v-1434h-174zM1079 748l568 686h202l-579 -684l602 -750h-203z" />
<glyph unicode="&#x417;" horiz-adv-x="1183" d="M82 205l96 117q152 -178 363 -179q145 0 233 70q92 76 92 205q0 106 -73 170q-74 63 -207 63h-166v164h153q94 0 164 68q74 70 74 174q0 113 -74 176q-72 57 -186 57q-190 0 -326 -160l-102 115q162 209 446 209q188 0 301 -98q115 -102 115 -283q0 -221 -207 -328v-6 q127 -25 197 -118q66 -90 65 -220q0 -193 -145 -309q-139 -113 -344 -112q-319 0 -469 225z" />
<glyph unicode="&#x418;" horiz-adv-x="1628" d="M215 0v1434h174v-1147l871 1147h153v-1434h-174v1147l-870 -1147h-154z" />
<glyph unicode="&#x419;" horiz-adv-x="1628" d="M215 0v1434h174v-1147l871 1147h153v-1434h-174v1147l-870 -1147h-154zM444 1761h164q49 -133 219 -133q180 0 211 133h164q-14 -115 -121 -186q-104 -70 -254 -70q-158 0 -262 72q-102 70 -121 184z" />
<glyph unicode="&#x41a;" horiz-adv-x="1337" d="M215 0v1434h174v-1434h-174zM424 748l629 686h211l-639 -674l671 -760h-223z" />
<glyph unicode="&#x41b;" horiz-adv-x="1486" d="M51 0l2 174q113 -10 185 133q113 225 155 840l21 287h858v-1434h-174v1270h-520l-25 -271q-57 -627 -199 -852q-106 -172 -303 -147z" />
<glyph unicode="&#x41c;" horiz-adv-x="1826" d="M215 0v1434h176l539 -736l516 736h166v-1434h-174v1159l-508 -713h-27l-514 707v-1153h-174z" />
<glyph unicode="&#x41d;" horiz-adv-x="1566" d="M215 0v1434h174v-621h789v621h174v-1434h-174v649h-789v-649h-174z" />
<glyph unicode="&#x41e;" horiz-adv-x="1667" d="M102 717q0 313 207 524q207 213 525 213q315 0 522 -205q209 -209 209 -532q0 -317 -209 -529q-209 -209 -522 -208q-315 0 -523 204q-209 209 -209 533zM287 717q-1 -244 157 -410q158 -164 390 -164q242 0 397 166q150 162 149 408q0 248 -157 411q-158 162 -389 162 q-236 0 -390 -162q-158 -162 -157 -411z" />
<glyph unicode="&#x41f;" horiz-adv-x="1556" d="M215 0v1434h1126v-1434h-174v1270h-778v-1270h-174z" />
<glyph unicode="&#x420;" horiz-adv-x="1222" d="M215 0v1434l375 4q283 0 420 -140q111 -113 110 -305q0 -188 -127 -313q-141 -137 -389 -137q-119 0 -215 8v-551h-174zM389 717q117 -10 209 -10q158 0 248 77q90 76 90 211q0 279 -330 279q-82 0 -217 -4v-553z" />
<glyph unicode="&#x421;" horiz-adv-x="1343" d="M102 717q0 317 189 522q199 215 526 215q274 0 436 -139l-79 -131q-143 106 -355 106q-233 0 -383 -160t-149 -413q0 -256 155 -416q154 -158 404 -158q211 0 366 127l70 -131q-156 -160 -453 -159q-324 0 -524 200q-203 203 -203 537z" />
<glyph unicode="&#x422;" horiz-adv-x="1218" d="M20 1270v164h1178v-164h-502v-1270h-174v1270h-502z" />
<glyph unicode="&#x423;" horiz-adv-x="1363" d="M31 1434h196l537 -899l393 899h176l-495 -1106q-147 -328 -357 -328q-109 0 -174 51l62 148q53 -37 110 -37q106 0 176 145l25 53z" />
<glyph unicode="&#x424;" horiz-adv-x="1708" d="M82 737q0 266 188 418q180 145 494 148v147h174v-147q315 -2 500 -150q188 -152 188 -416q0 -266 -190 -418q-184 -147 -492 -147h-6v-188h-174v188h-2q-309 0 -492 147q-188 152 -188 418zM266 737q0 -197 135 -303q131 -102 361 -102h2v809q-233 0 -365 -107 q-133 -109 -133 -297zM938 332h4q236 0 365 102q135 104 135 303q0 190 -131 297q-133 106 -371 107h-2v-809z" />
<glyph unicode="&#x425;" horiz-adv-x="1359" d="M41 0l526 729l-504 705h205l416 -574l410 574h206l-507 -705l526 -729h-207l-434 596l-432 -596h-205z" />
<glyph unicode="&#x426;" horiz-adv-x="1587" d="M215 0v1434h174v-1270h768v1270h174v-1270h195v-430h-164v266h-1147z" />
<glyph unicode="&#x427;" horiz-adv-x="1331" d="M133 973v461h174v-414q0 -340 301 -340q174 0 334 108v646h174v-1434h-174v627q-154 -111 -379 -111q-188 0 -301 102q-129 119 -129 355z" />
<glyph unicode="&#x428;" horiz-adv-x="2037" d="M215 0v1434h174v-1270h543v1270h174v-1270h543v1270h174v-1434h-1608z" />
<glyph unicode="&#x429;" horiz-adv-x="2078" d="M215 0v1434h174v-1270h543v1270h174v-1270h543v1270h174v-1270h194v-430h-164v266h-1638z" />
<glyph unicode="&#x42a;" horiz-adv-x="1370" d="M10 1270v164h516v-533q129 10 201 10q270 0 410 -118q131 -115 131 -324q0 -225 -152 -350q-154 -123 -428 -123l-336 4v1270h-342zM526 166l183 -6q375 0 374 305q0 283 -368 283q-80 -1 -189 -13v-569z" />
<glyph unicode="&#x42b;" horiz-adv-x="1730" d="M215 0v1434h174v-533q129 10 191 10q264 0 401 -118q129 -115 129 -324q0 -225 -152 -350q-150 -123 -417 -123zM389 166l172 -6q365 0 365 305q0 283 -359 283q-69 -1 -178 -13v-569zM1341 0v1434h175v-1434h-175z" />
<glyph unicode="&#x42c;" horiz-adv-x="1232" d="M215 0v1434h174v-533q129 10 201 10q270 0 409 -118q131 -115 131 -324q0 -225 -151 -350q-154 -123 -428 -123zM389 166l182 -6q375 0 375 305q0 283 -368 283q-80 -1 -189 -13v-569z" />
<glyph unicode="&#x42d;" horiz-adv-x="1386" d="M72 129l75 145q174 -131 398 -131q229 0 383 136q156 137 178 370h-711v164h709q-27 223 -184 350q-154 127 -396 127q-211 0 -362 -116l-68 131q170 150 471 149q322 0 520 -199q199 -203 199 -534q0 -330 -199 -535q-203 -207 -536 -206q-291 0 -477 149z" />
<glyph unicode="&#x42e;" horiz-adv-x="2207" d="M215 0v1434h174v-621h309q31 281 220 459q195 182 477 182q313 0 512 -205q199 -207 198 -532q0 -319 -198 -529q-201 -209 -512 -208q-283 0 -480 184q-199 188 -219 485h-307v-649h-174zM879 717q-1 -244 149 -410q147 -164 371 -164q242 0 385 166q137 158 137 408 q0 252 -145 411q-145 162 -377 162q-225 0 -373 -162q-147 -162 -147 -411z" />
<glyph unicode="&#x42f;" horiz-adv-x="1275" d="M51 0l398 563q-283 115 -283 402q0 207 135 333q147 141 424 142l336 -6v-1434h-174v532h-269l-370 -532h-197zM350 975q0 -109 78 -189q70 -74 170 -90h289v574q-141 6 -195 6q-162 0 -254 -86q-88 -82 -88 -215z" />
<glyph unicode="&#x430;" horiz-adv-x="942" d="M82 270q0 137 100 217q94 76 248 76q147 0 229 -59q0 147 -36 211q-45 80 -172 80q-125 0 -254 -68l-43 131q135 84 307 84q354 0 354 -377v-565h-156v119q-106 -133 -294 -133q-127 0 -205 75q-78 78 -78 209zM256 279q0 -145 166 -146q137 0 237 119v117 q-86 61 -206 61q-82 0 -136 -35q-61 -41 -61 -116z" />
<glyph unicode="&#x431;" horiz-adv-x="1130" d="M82 553q0 600 342 743q469 201 436 158l88 -129q33 43 -469 -184q-209 -94 -233 -445h4q45 96 145 156q102 59 219 59q197 0 314 -125q115 -125 114 -333q0 -197 -131 -334q-135 -139 -342 -139q-225 0 -356 153q-131 154 -131 420zM256 522q0 -176 86 -282t223 -107 q133 0 219 92q84 88 84 219q0 139 -75 226q-80 88 -220 88q-123 0 -213 -74q-82 -66 -104 -162z" />
<glyph unicode="&#x432;" horiz-adv-x="1011" d="M147 0v922q33 0 148 4q113 4 186 4q397 0 398 -238q0 -82 -52 -139q-51 -59 -133 -72v-4q215 -39 215 -217q0 -268 -424 -268q-61 0 -180 4t-158 4zM311 131q147 -6 189 -6q236 0 235 147q0 141 -227 142h-197v-283zM311 516h207q84 0 133 39q53 39 54 104 q0 137 -211 138q-60 0 -183 -6v-275z" />
<glyph unicode="&#x433;" horiz-adv-x="741" d="M147 0v922h584v-154h-420v-768h-164z" />
<glyph unicode="&#x434;" horiz-adv-x="1103" d="M20 154h115q117 147 141 524l15 244h629v-768h153v-379h-153v225h-746v-225h-154v379zM309 154h447v614h-312l-10 -154q-29 -334 -125 -460z" />
<glyph unicode="&#x435;" horiz-adv-x="1064" d="M86 461q0 209 125 342q129 139 350 139q182 0 303 -115q125 -121 125 -307q0 -63 -10 -110h-709q10 -129 99 -203q86 -74 223 -74q180 0 282 96l52 -129q-133 -121 -346 -120q-223 0 -359 131q-135 131 -135 350zM260 543h559q-6 115 -76 180q-72 66 -190 65 q-123 1 -203 -69q-76 -68 -90 -176z" />
<glyph unicode="&#x436;" horiz-adv-x="1390" d="M31 0l352 477l-334 445h205l315 -445l-338 -477h-200zM610 0v922h164v-922h-164zM815 477l318 445h202l-334 -445l359 -477h-203z" />
<glyph unicode="&#x437;" horiz-adv-x="946" d="M72 104l84 123q123 -100 272 -100q106 0 174 41q68 43 68 111q0 119 -181 118h-155v133h145q70 0 115 39q45 37 45 93q0 133 -197 133q-147 0 -276 -103l-64 127q119 123 365 123q166 0 258 -68q88 -66 88 -180q0 -160 -162 -217v-4q92 -10 146 -74q47 -59 47 -143 q0 -127 -111 -203q-106 -74 -280 -73q-277 -1 -381 124z" />
<glyph unicode="&#x438;" horiz-adv-x="1157" d="M147 0v922h164v-686l533 686h164v-922h-164v686l-533 -686h-164z" />
<glyph unicode="&#x439;" horiz-adv-x="1157" d="M147 0v922h164v-686l533 686h164v-922h-164v686l-533 -686h-164zM279 1393h153q12 -162 158 -162q137 0 149 162h154q0 -123 -82 -205q-86 -82 -221 -82q-147 0 -232 82q-80 78 -79 205z" />
<glyph unicode="&#x43a;" horiz-adv-x="1019" d="M147 0v922h164v-922h-164zM350 471l389 451h215l-403 -441l442 -481h-227z" />
<glyph unicode="&#x43b;" horiz-adv-x="1089" d="M61 147q74 -6 129 82q80 123 95 406l16 287h641v-922h-164v758h-323l-11 -156q-29 -365 -129 -504q-80 -111 -241 -110z" />
<glyph unicode="&#x43c;" horiz-adv-x="1282" d="M147 0v922h150l354 -457l336 457h146v-922h-164v672l-320 -428h-6l-332 428v-672h-164z" />
<glyph unicode="&#x43d;" horiz-adv-x="1136" d="M147 0v922h164v-379h512v379h164v-922h-164v389h-512v-389h-164z" />
<glyph unicode="&#x43e;" horiz-adv-x="1157" d="M86 461q0 209 135 344q137 137 357 137q219 0 356 -137q135 -135 135 -344t-135 -344q-137 -137 -356 -137t-357 137q-135 135 -135 344zM260 461q0 -144 90 -236q88 -92 228 -92q139 0 227 90q90 92 90 238q0 143 -90 235q-88 92 -227 92q-137 0 -226 -90 q-92 -92 -92 -237z" />
<glyph unicode="&#x43f;" horiz-adv-x="1126" d="M147 0v922h830v-922h-164v768h-502v-768h-164z" />
<glyph unicode="&#x440;" horiz-adv-x="1138" d="M147 -410v1332h164v-109q111 129 314 129q195 0 311 -131q115 -129 115 -336q0 -213 -131 -352q-135 -143 -349 -143q-164 0 -260 63v-453h-164zM311 205q106 -72 246 -72q145 0 234 94q86 94 86 242q0 143 -78 229q-82 90 -221 90q-165 1 -267 -126v-457z" />
<glyph unicode="&#x441;" horiz-adv-x="999" d="M86 461q0 203 133 342t334 139q242 0 362 -121l-75 -129q-104 96 -265 96q-129 0 -219 -90q-96 -96 -96 -237q0 -147 98 -240q92 -88 234 -88q160 0 264 119l78 -119q-119 -154 -354 -153q-221 0 -357 131q-137 133 -137 350z" />
<glyph unicode="&#x442;" horiz-adv-x="901" d="M31 758v164h839v-164h-338v-758h-163v758h-338z" />
<glyph unicode="&#x443;" horiz-adv-x="1005" d="M20 922h197l270 -586l56 -139q18 68 43 141l213 584h186l-369 -922q-98 -240 -178 -328q-72 -82 -174 -82q-88 0 -174 58l53 125q66 -31 103 -31q111 0 196 209l21 49z" />
<glyph unicode="&#x444;" horiz-adv-x="1382" d="M86 461q0 199 129 334q141 147 369 147h24v492h164v-492h27q225 0 362 -139q133 -135 133 -342q0 -213 -127 -344q-133 -137 -368 -137h-27v-390h-164v390h-22q-231 0 -369 137q-131 133 -131 344zM260 461q0 -148 86 -236q90 -92 246 -92h16v655h-26q-152 0 -240 -96 q-82 -90 -82 -231zM772 133h19q158 0 245 92q84 88 84 236q0 135 -82 227q-90 100 -239 100h-27v-655z" />
<glyph unicode="&#x445;" horiz-adv-x="1038" d="M51 0l348 469l-327 453h200l250 -349l254 349h191l-330 -445l350 -477h-201l-270 373l-274 -373h-191z" />
<glyph unicode="&#x446;" horiz-adv-x="1150" d="M147 0v922h164v-768h492v768h164v-768h153v-379h-153v225h-820z" />
<glyph unicode="&#x447;" horiz-adv-x="987" d="M92 643v279h174v-260q0 -217 199 -218q129 0 211 58v420h164v-922h-164v358q-106 -68 -256 -67q-328 0 -328 352z" />
<glyph unicode="&#x448;" horiz-adv-x="1464" d="M147 0v922h164v-768h338v768h164v-768h338v768h164v-922h-1168z" />
<glyph unicode="&#x449;" horiz-adv-x="1499" d="M147 0v922h164v-768h338v768h164v-768h338v768h164v-768h153v-379h-153v225h-1168z" />
<glyph unicode="&#x44a;" horiz-adv-x="1042" d="M10 768v154h428v-277h168q365 0 365 -317q0 -139 -84 -226q-100 -102 -301 -102h-312v768h-264zM438 154h135q223 0 224 168q0 170 -222 170h-137v-338z" />
<glyph unicode="&#x44b;" horiz-adv-x="1314" d="M147 0v922h164v-277h152q365 0 364 -317q0 -139 -84 -226q-98 -102 -299 -102h-297zM311 154h119q223 0 223 168q0 170 -221 170h-121v-338zM1004 0v922h163v-922h-163z" />
<glyph unicode="&#x44c;" horiz-adv-x="915" d="M147 0v922h164v-277h168q365 0 365 -317q0 -139 -84 -226q-100 -102 -301 -102h-312zM311 154h135q223 0 224 168q0 170 -221 170h-138v-338z" />
<glyph unicode="&#x44d;" horiz-adv-x="1001" d="M72 811q135 131 350 131q219 0 354 -131q137 -131 137 -350q0 -203 -131 -342q-135 -139 -336 -139q-252 0 -370 116l78 121q92 -84 282 -84q129 0 211 70q82 72 98 198h-454v134h452q-39 254 -319 253q-170 0 -283 -100z" />
<glyph unicode="&#x44e;" horiz-adv-x="1556" d="M147 0v922h175v-369h200q29 174 152 281q127 109 313 108q215 0 348 -137q133 -135 133 -344t-133 -344q-135 -137 -348 -137q-193 0 -319 114q-125 113 -148 295h-198v-389h-175zM700 461q0 -144 82 -232q82 -86 211 -86t209 86q82 88 82 232q0 141 -80 229t-211 88 q-129 0 -211 -88t-82 -229z" />
<glyph unicode="&#x44f;" horiz-adv-x="987" d="M72 0l266 348q-80 18 -135 84q-63 76 -64 182q0 133 90 213q106 94 322 95h287v-922h-164v307h-178l-226 -307h-198zM313 610q1 -67 56 -110q51 -39 116 -39h189v307h-150q-211 0 -211 -158z" />
<glyph unicode="&#x451;" horiz-adv-x="1064" d="M86 461q0 209 125 342q129 139 350 139q182 0 303 -115q125 -121 125 -307q0 -63 -10 -110h-709q10 -129 99 -203q86 -74 223 -74q180 0 282 96l52 -129q-133 -121 -346 -120q-223 0 -359 131q-135 131 -135 350zM248 1249q0 94 96 94q35 0 62 -24q29 -29 28 -70 q0 -47 -28 -75q-25 -27 -62 -27q-96 0 -96 102zM260 543h559q-6 115 -76 180q-72 66 -190 65q-123 1 -203 -69q-76 -68 -90 -176zM664 1249q0 94 98 94q35 0 61 -24q29 -29 29 -70q0 -47 -29 -75q-25 -27 -61 -27q-98 0 -98 102z" />
<glyph unicode="&#x452;" horiz-adv-x="1220" d="M10 942v133h266v359h164v-359h369v-133h-369v-311q119 123 301 123q383 0 383 -404q0 -248 -94 -450q-94 -205 -260 -310h-178q367 258 366 719q0 291 -258 291q-162 0 -260 -117v-483h-164v942h-266z" />
<glyph unicode="&#x453;" horiz-adv-x="741" d="M147 0v922h584v-154h-420v-768h-164zM360 1157l218 322l127 -99l-246 -293z" />
<glyph unicode="&#x454;" horiz-adv-x="1001" d="M86 461q0 219 137 350q135 131 357 131q217 0 348 -131l-68 -123q-113 100 -285 100q-279 0 -321 -253h455v-134h-455q18 -131 113 -200q90 -68 221 -68q178 0 270 84l68 -121q-123 -117 -361 -116q-211 0 -346 137q-133 135 -133 344z" />
<glyph unicode="&#x455;" horiz-adv-x="880" d="M92 123l92 117q100 -117 267 -117q70 0 114 33q49 35 49 94q1 61 -77 98q-14 8 -170 62q-250 84 -250 272q0 119 88 190q86 70 225 70q205 0 318 -108l-78 -125q-100 90 -232 90q-68 0 -108 -35q-39 -33 -39 -80q0 -63 78 -102q23 -12 172 -62q248 -84 247 -262 q0 -137 -108 -213q-96 -66 -248 -65q-106 0 -209 47q-96 43 -131 96z" />
<glyph unicode="&#x456;" horiz-adv-x="548" d="M172 1268q0 42 33 71q29 27 74 27q41 0 69 -27q31 -29 31 -71q0 -49 -31 -78q-29 -29 -69 -29q-106 0 -107 107zM193 0v922h163v-922h-163z" />
<glyph unicode="&#x457;" horiz-adv-x="600" d="M72 1245q0 86 90 86q33 0 57 -24q25 -25 25 -62q0 -39 -25 -65q-25 -25 -57 -25q-90 0 -90 90zM217 0v922h164v-922h-164zM358 1245q0 86 88 86q82 0 82 -86q0 -90 -82 -90q-88 0 -88 90z" />
<glyph unicode="&#x458;" horiz-adv-x="559" d="M-129 -367l47 131q59 -37 121 -36q162 0 162 217v977h164v-990q0 -358 -289 -358q-129 0 -205 59zM178 1268q0 42 33 71q29 27 74 27q41 0 69 -27q31 -29 31 -71q0 -49 -31 -78q-29 -29 -69 -29q-106 0 -107 107z" />
<glyph unicode="&#x459;" horiz-adv-x="1519" d="M61 147q74 -6 129 82q80 123 95 406l16 287h641v-277h141q365 0 365 -317q0 -139 -84 -226q-100 -102 -301 -102h-285v758h-323l-11 -156q-29 -365 -129 -504q-80 -111 -241 -110zM942 154h109q223 0 223 168q0 170 -221 170h-111v-338z" />
<glyph unicode="&#x45a;" horiz-adv-x="1564" d="M147 0v922h164v-359h512v359h164v-297h141q365 0 365 -308q0 -137 -84 -219q-98 -98 -299 -98h-287v410h-512v-410h-164zM987 154h109q223 0 223 157q0 160 -221 160h-111v-317z" />
<glyph unicode="&#x45b;" horiz-adv-x="1220" d="M10 942v133h266v359h164v-359h369v-133h-369v-311q119 123 301 123q383 0 383 -410v-344h-163v322q0 279 -261 278q-162 0 -260 -117v-483h-164v942h-266z" />
<glyph unicode="&#x45c;" horiz-adv-x="1019" d="M147 0v922h164v-922h-164zM350 471l389 451h215l-403 -441l442 -481h-227zM403 1157l218 322l127 -99l-246 -293z" />
<glyph unicode="&#x45e;" horiz-adv-x="1005" d="M20 922h197l270 -586l56 -139q18 68 43 141l213 584h186l-369 -922q-98 -240 -178 -328q-72 -82 -174 -82q-88 0 -174 58l53 125q66 -31 103 -31q111 0 196 209l21 49zM207 1393h153q12 -162 158 -162q137 0 150 162h153q0 -123 -82 -205q-86 -82 -221 -82 q-147 0 -231 82q-80 78 -80 205z" />
<glyph unicode="&#x45f;" horiz-adv-x="1105" d="M147 0v922h164v-768h482v768h163v-922h-327v-256h-154v256h-328z" />
<glyph unicode="&#x462;" horiz-adv-x="1308" d="M20 1065v164h271v205h174v-205h321v-164h-321v-205q129 10 201 10q541 0 540 -421q0 -223 -151 -340q-150 -113 -428 -113l-336 4v1065h-271zM465 166l182 -6q375 0 375 284q0 262 -369 263q-79 -1 -188 -13v-528z" />
<glyph unicode="&#x463;" horiz-adv-x="1036" d="M10 768v154h264v512h164v-512h307v-154h-307v-184h162q365 0 365 -299q0 -285 -383 -285h-308v768h-264zM438 154h160q193 0 193 139q0 137 -193 137h-160v-276z" />
<glyph unicode="&#x472;" horiz-adv-x="1667" d="M102 717q0 313 207 524q207 213 525 213q315 0 522 -205q209 -209 209 -532q0 -317 -209 -529q-209 -209 -522 -208q-315 0 -523 204q-209 209 -209 533zM289 776q156 109 301 109q111 0 264 -82q154 -84 254 -84q141 -1 262 108q-35 205 -184 334q-150 129 -352 129 q-219 0 -373 -143q-152 -143 -172 -371zM297 604q35 -203 184 -332q150 -129 353 -129q227 0 378 148q147 143 164 371q-143 -96 -280 -97q-109 0 -260 84q-150 82 -248 82q-150 0 -291 -127z" />
<glyph unicode="&#x473;" horiz-adv-x="1177" d="M86 461q0 211 137 344q139 137 365 137q225 0 364 -137q137 -133 138 -344q0 -211 -138 -344q-139 -137 -364 -137t-365 137q-137 133 -137 344zM252 506q86 72 172 72q74 0 188 -60q113 -61 164 -61q83 -1 146 65q-18 135 -115 213q-90 74 -219 74q-131 0 -223 -78 q-98 -84 -113 -225zM254 389q20 -129 117 -205q90 -72 217 -71q133 0 223 75q98 82 113 224q-82 -68 -168 -68q-72 0 -178 62q-106 59 -162 59q-88 0 -162 -76z" />
<glyph unicode="&#x474;" horiz-adv-x="1349" d="M10 1434h187l487 -1178l303 874q74 215 158 279q84 63 246 21l-27 -154q-90 33 -141 -27q-41 -47 -103 -217l-377 -1040h-129z" />
<glyph unicode="&#x475;" horiz-adv-x="993" d="M10 922h193l233 -498q35 -78 76 -201q31 98 68 205l100 262q66 170 135 217q74 51 219 8l-26 -151q-70 33 -117 -16q-33 -35 -86 -158l-238 -598h-118z" />
<glyph unicode="&#x490;" horiz-adv-x="1034" d="M215 0v1434h635v256h164v-420h-625v-1270h-174z" />
<glyph unicode="&#x491;" horiz-adv-x="741" d="M147 0v922h431v215h153v-369h-420v-768h-164z" />
<glyph unicode="&#x1e9e;" horiz-adv-x="1318" d="M215 -4v999q0 231 127 351q115 109 317 108q244 0 414 -201l-280 -379q414 -256 413 -544q0 -154 -112 -256q-102 -94 -238 -94q-190 0 -330 126l78 136q117 -98 213 -99q82 0 141 56q63 59 64 155q0 117 -135 244q-84 78 -303 223l276 391q-74 78 -209 78 q-262 0 -262 -291v-1003h-174z" />
<glyph unicode="&#x2000;" horiz-adv-x="909" />
<glyph unicode="&#x2001;" horiz-adv-x="1819" />
<glyph unicode="&#x2002;" horiz-adv-x="909" />
<glyph unicode="&#x2003;" horiz-adv-x="1819" />
<glyph unicode="&#x2004;" horiz-adv-x="606" />
<glyph unicode="&#x2005;" horiz-adv-x="454" />
<glyph unicode="&#x2006;" horiz-adv-x="303" />
<glyph unicode="&#x2007;" horiz-adv-x="303" />
<glyph unicode="&#x2008;" horiz-adv-x="227" />
<glyph unicode="&#x2009;" horiz-adv-x="363" />
<glyph unicode="&#x200a;" horiz-adv-x="101" />
<glyph unicode="&#x2010;" horiz-adv-x="796" d="M154 481v154h489v-154h-489z" />
<glyph unicode="&#x2011;" horiz-adv-x="796" d="M154 481v154h489v-154h-489z" />
<glyph unicode="&#x2012;" horiz-adv-x="1216" d="M184 653v144h848v-144h-848z" />
<glyph unicode="&#x2013;" horiz-adv-x="1216" d="M184 481v144h848v-144h-848z" />
<glyph unicode="&#x2014;" horiz-adv-x="1646" d="M184 481v144h1278v-144h-1278z" />
<glyph unicode="&#x2015;" horiz-adv-x="1646" d="M184 481v144h1278v-144h-1278z" />
<glyph unicode="&#x2018;" horiz-adv-x="489" d="M133 1214q0 209 174 308l76 -74q-96 -66 -96 -197q0 -78 43 -121l-137 -83q-59 66 -60 167z" />
<glyph unicode="&#x2019;" horiz-adv-x="489" d="M106 1114q96 68 97 199q0 78 -43 121l137 82q59 -63 59 -168q0 -207 -174 -306z" />
<glyph unicode="&#x201a;" horiz-adv-x="489" d="M106 -248q96 68 97 199q0 78 -43 121l137 82q59 -63 59 -168q0 -207 -174 -305z" />
<glyph unicode="&#x201c;" horiz-adv-x="786" d="M133 1214q0 209 174 308l76 -74q-96 -66 -96 -197q0 -78 43 -121l-137 -83q-59 66 -60 167zM430 1214q0 209 174 308l76 -74q-96 -66 -96 -197q0 -78 43 -121l-138 -83q-59 66 -59 167z" />
<glyph unicode="&#x201d;" horiz-adv-x="786" d="M106 1114q96 68 97 199q0 78 -43 121l137 82q59 -63 59 -168q0 -207 -174 -306zM403 1114q96 68 97 199q0 78 -43 121l137 82q59 -63 59 -168q0 -207 -174 -306z" />
<glyph unicode="&#x201e;" horiz-adv-x="786" d="M106 -248q96 68 97 199q0 78 -43 121l137 82q59 -63 59 -168q0 -207 -174 -305zM403 -248q96 68 97 199q0 78 -43 121l137 82q59 -63 59 -168q0 -207 -174 -305z" />
<glyph unicode="&#x2020;" horiz-adv-x="940" d="M82 840v143h311v451h154v-451h311v-143h-311v-1045h-154v1045h-311z" />
<glyph unicode="&#x2021;" horiz-adv-x="940" d="M82 307v144h311v389h-311v143h311v451h154v-451h311v-143h-311v-389h311v-144h-311v-512h-154v512h-311z" />
<glyph unicode="&#x2022;" horiz-adv-x="471" d="M61 539q1 72 52 123t120 51q72 0 125 -51q51 -51 52 -123q0 -72 -52 -123q-53 -51 -125 -51q-70 0 -120 51q-51 51 -52 123z" />
<glyph unicode="&#x2026;" horiz-adv-x="1740" d="M143 111q0 42 31 73q35 35 86 35q45 0 78 -35q31 -33 31 -73q0 -47 -31 -82t-78 -35q-51 0 -86 35q-31 35 -31 82zM758 111q-1 42 30 73q35 35 86 35q45 0 78 -35q31 -33 31 -73q0 -47 -31 -82t-78 -35q-51 0 -86 35q-31 35 -30 82zM1372 111q0 42 31 73q35 35 86 35 q45 0 78 -35q31 -33 30 -73q0 -47 -30 -82q-31 -35 -78 -35q-51 0 -86 35q-31 35 -31 82z" />
<glyph unicode="&#x202f;" horiz-adv-x="363" />
<glyph unicode="&#x2030;" horiz-adv-x="2662" d="M92 1100q1 154 107 250q104 96 268 96t268 -96q106 -96 107 -250q0 -154 -107 -252q-106 -96 -268 -96t-268 96q-106 98 -107 252zM246 1100q-1 -97 67 -156q63 -59 154 -59q92 0 156 59q66 59 65 156q0 94 -65 155q-63 57 -156 58q-92 0 -156 -58q-66 -61 -65 -155z M326 47l1052 1407l95 -70l-1051 -1404zM954 336q1 154 107 250q104 96 268 96t268 -96q106 -96 107 -250q0 -154 -107 -252q-106 -96 -268 -96t-268 96q-106 98 -107 252zM1108 336q0 -97 68 -156q63 -59 153 -59q92 0 156 59q66 59 65 156q0 94 -65 156q-63 57 -156 57 q-92 0 -155 -57q-66 -61 -66 -156zM1821 336q0 154 106 250q104 96 268 96t269 -96q106 -96 106 -250t-106 -252q-106 -96 -269 -96q-162 0 -268 96q-106 98 -106 252zM1974 336q0 -97 68 -156q63 -59 153 -59q92 0 156 59q66 59 66 156q0 94 -66 156q-63 57 -156 57 q-92 0 -155 -57q-66 -61 -66 -156z" />
<glyph unicode="&#x2039;" horiz-adv-x="696" d="M92 508v8l385 442l107 -94l-303 -352l301 -354l-111 -97z" />
<glyph unicode="&#x203a;" horiz-adv-x="696" d="M113 864l106 94l385 -442v-8l-379 -447l-110 97l301 354z" />
<glyph unicode="&#x2044;" horiz-adv-x="409" d="M-369 47l1053 1407l94 -70l-1050 -1404z" />
<glyph unicode="&#x205f;" horiz-adv-x="454" />
<glyph unicode="&#x20ac;" d="M37 840l53 133h152q66 219 237 346q178 135 426 135q166 0 277 -59l-64 -150q-94 45 -213 45q-344 0 -471 -317h613l-50 -133h-598q-10 -66 -10 -123q0 -49 6 -92h545l-43 -133h-471q59 -162 192 -254q137 -94 316 -95q127 0 196 37l29 -157q-82 -43 -239 -43 q-256 0 -441 137q-184 137 -248 375h-192l51 133h119q-4 57 -4 92q0 68 8 123h-176z" />
<glyph unicode="&#x20b4;" horiz-adv-x="1228" d="M150 496v133h233q43 43 139 108q104 70 146 107h-518v133h624q33 43 33 141q0 172 -191 172q-162 0 -272 -106l-84 123q125 147 363 147q166 0 266 -88q98 -86 98 -223q0 -102 -53 -166h145v-133h-229q-47 -47 -141 -111q-102 -70 -140 -104h510v-133h-630 q-59 -66 -60 -154q0 -92 76 -147q72 -51 180 -52q182 0 297 142l88 -111q-133 -195 -409 -194q-160 0 -273 86q-123 94 -123 249q0 98 62 181h-137z" />
<glyph unicode="&#x20b6;" horiz-adv-x="1228" d="M39 283v133h217v215h-217v133h217v670l375 4q530 0 530 -408q0 -180 -127 -287q-135 -113 -389 -112h-215v-215h354v-133h-354v-283h-174v283h-217zM430 764h209q338 0 338 254q0 256 -330 256q-82 0 -217 -4v-506z" />
<glyph unicode="&#x20ce;" horiz-adv-x="1228" d="M39 283v133h217v215h-217v133h217v670l375 4q530 0 530 -408q0 -180 -127 -287q-135 -113 -389 -112h-215v-215h354v-133h-354v-283h-174v283h-217zM430 764h209q338 0 338 254q0 256 -330 256q-82 0 -217 -4v-506z" />
<glyph unicode="&#x20cd;" horiz-adv-x="1228" d="M39 283v133h217v215h-217v133h217v670l375 4q530 0 530 -408q0 -180 -127 -287q-135 -113 -389 -112h-215v-215h354v-133h-354v-283h-174v283h-217zM430 764h209q338 0 338 254q0 256 -330 256q-82 0 -217 -4v-506z" />
<glyph unicode="&#x20cc;" horiz-adv-x="1228" d="M39 283v133h217v215h-217v133h217v670l375 4q530 0 530 -408q0 -180 -127 -287q-135 -113 -389 -112h-215v-215h354v-133h-354v-283h-174v283h-217zM430 764h209q338 0 338 254q0 256 -330 256q-82 0 -217 -4v-506z" />
<glyph unicode="&#x20cb;" horiz-adv-x="1228" d="M39 283v133h217v215h-217v133h217v670l375 4q530 0 530 -408q0 -180 -127 -287q-135 -113 -389 -112h-215v-215h354v-133h-354v-283h-174v283h-217zM430 764h209q338 0 338 254q0 256 -330 256q-82 0 -217 -4v-506z" />
<glyph unicode="&#x20ca;" horiz-adv-x="1228" d="M39 283v133h217v215h-217v133h217v670l375 4q530 0 530 -408q0 -180 -127 -287q-135 -113 -389 -112h-215v-215h354v-133h-354v-283h-174v283h-217zM430 764h209q338 0 338 254q0 256 -330 256q-82 0 -217 -4v-506z" />
<glyph unicode="&#x20c9;" horiz-adv-x="1228" d="M39 283v133h217v215h-217v133h217v670l375 4q530 0 530 -408q0 -180 -127 -287q-135 -113 -389 -112h-215v-215h354v-133h-354v-283h-174v283h-217zM430 764h209q338 0 338 254q0 256 -330 256q-82 0 -217 -4v-506z" />
<glyph unicode="&#x20c8;" horiz-adv-x="1228" d="M39 283v133h217v215h-217v133h217v670l375 4q530 0 530 -408q0 -180 -127 -287q-135 -113 -389 -112h-215v-215h354v-133h-354v-283h-174v283h-217zM430 764h209q338 0 338 254q0 256 -330 256q-82 0 -217 -4v-506z" />
<glyph unicode="&#x20c7;" horiz-adv-x="1228" d="M39 283v133h217v215h-217v133h217v670l375 4q530 0 530 -408q0 -180 -127 -287q-135 -113 -389 -112h-215v-215h354v-133h-354v-283h-174v283h-217zM430 764h209q338 0 338 254q0 256 -330 256q-82 0 -217 -4v-506z" />
<glyph unicode="&#x20c6;" horiz-adv-x="1228" d="M39 283v133h217v215h-217v133h217v670l375 4q530 0 530 -408q0 -180 -127 -287q-135 -113 -389 -112h-215v-215h354v-133h-354v-283h-174v283h-217zM430 764h209q338 0 338 254q0 256 -330 256q-82 0 -217 -4v-506z" />
<glyph unicode="&#x20c5;" horiz-adv-x="1228" d="M39 283v133h217v215h-217v133h217v670l375 4q530 0 530 -408q0 -180 -127 -287q-135 -113 -389 -112h-215v-215h354v-133h-354v-283h-174v283h-217zM430 764h209q338 0 338 254q0 256 -330 256q-82 0 -217 -4v-506z" />
<glyph unicode="&#x20c4;" horiz-adv-x="1228" d="M39 283v133h217v215h-217v133h217v670l375 4q530 0 530 -408q0 -180 -127 -287q-135 -113 -389 -112h-215v-215h354v-133h-354v-283h-174v283h-217zM430 764h209q338 0 338 254q0 256 -330 256q-82 0 -217 -4v-506z" />
<glyph unicode="&#x20c3;" horiz-adv-x="1228" d="M39 283v133h217v215h-217v133h217v670l375 4q530 0 530 -408q0 -180 -127 -287q-135 -113 -389 -112h-215v-215h354v-133h-354v-283h-174v283h-217zM430 764h209q338 0 338 254q0 256 -330 256q-82 0 -217 -4v-506z" />
<glyph unicode="&#x20c2;" horiz-adv-x="1228" d="M39 283v133h217v215h-217v133h217v670l375 4q530 0 530 -408q0 -180 -127 -287q-135 -113 -389 -112h-215v-215h354v-133h-354v-283h-174v283h-217zM430 764h209q338 0 338 254q0 256 -330 256q-82 0 -217 -4v-506z" />
<glyph unicode="&#x20c1;" horiz-adv-x="1228" d="M39 283v133h217v215h-217v133h217v670l375 4q530 0 530 -408q0 -180 -127 -287q-135 -113 -389 -112h-215v-215h354v-133h-354v-283h-174v283h-217zM430 764h209q338 0 338 254q0 256 -330 256q-82 0 -217 -4v-506z" />
<glyph unicode="&#x20c0;" horiz-adv-x="1228" d="M39 283v133h217v215h-217v133h217v670l375 4q530 0 530 -408q0 -180 -127 -287q-135 -113 -389 -112h-215v-215h354v-133h-354v-283h-174v283h-217zM430 764h209q338 0 338 254q0 256 -330 256q-82 0 -217 -4v-506z" />
<glyph unicode="&#x20bf;" horiz-adv-x="1228" d="M39 283v133h217v215h-217v133h217v670l375 4q530 0 530 -408q0 -180 -127 -287q-135 -113 -389 -112h-215v-215h354v-133h-354v-283h-174v283h-217zM430 764h209q338 0 338 254q0 256 -330 256q-82 0 -217 -4v-506z" />
<glyph unicode="&#x20be;" horiz-adv-x="1228" d="M39 283v133h217v215h-217v133h217v670l375 4q530 0 530 -408q0 -180 -127 -287q-135 -113 -389 -112h-215v-215h354v-133h-354v-283h-174v283h-217zM430 764h209q338 0 338 254q0 256 -330 256q-82 0 -217 -4v-506z" />
<glyph unicode="&#x20bd;" horiz-adv-x="1228" d="M39 283v133h217v215h-217v133h217v670l375 4q530 0 530 -408q0 -180 -127 -287q-135 -113 -389 -112h-215v-215h354v-133h-354v-283h-174v283h-217zM430 764h209q338 0 338 254q0 256 -330 256q-82 0 -217 -4v-506z" />
<glyph unicode="&#x20bc;" horiz-adv-x="1228" d="M39 283v133h217v215h-217v133h217v670l375 4q530 0 530 -408q0 -180 -127 -287q-135 -113 -389 -112h-215v-215h354v-133h-354v-283h-174v283h-217zM430 764h209q338 0 338 254q0 256 -330 256q-82 0 -217 -4v-506z" />
<glyph unicode="&#x20bb;" horiz-adv-x="1228" d="M39 283v133h217v215h-217v133h217v670l375 4q530 0 530 -408q0 -180 -127 -287q-135 -113 -389 -112h-215v-215h354v-133h-354v-283h-174v283h-217zM430 764h209q338 0 338 254q0 256 -330 256q-82 0 -217 -4v-506z" />
<glyph unicode="&#x20ba;" horiz-adv-x="1228" d="M39 283v133h217v215h-217v133h217v670l375 4q530 0 530 -408q0 -180 -127 -287q-135 -113 -389 -112h-215v-215h354v-133h-354v-283h-174v283h-217zM430 764h209q338 0 338 254q0 256 -330 256q-82 0 -217 -4v-506z" />
<glyph unicode="&#x20b9;" horiz-adv-x="1228" d="M39 283v133h217v215h-217v133h217v670l375 4q530 0 530 -408q0 -180 -127 -287q-135 -113 -389 -112h-215v-215h354v-133h-354v-283h-174v283h-217zM430 764h209q338 0 338 254q0 256 -330 256q-82 0 -217 -4v-506z" />
<glyph unicode="&#x20b7;" horiz-adv-x="1228" d="M39 283v133h217v215h-217v133h217v670l375 4q530 0 530 -408q0 -180 -127 -287q-135 -113 -389 -112h-215v-215h354v-133h-354v-283h-174v283h-217zM430 764h209q338 0 338 254q0 256 -330 256q-82 0 -217 -4v-506z" />
<glyph unicode="&#x2122;" horiz-adv-x="1734" d="M31 1284v150h651v-150h-250v-496h-153v496h-248zM778 788v646h142l272 -287l258 287h135v-646h-153v449l-244 -270h-4l-250 270v-449h-156z" />
<glyph unicode="&#x25fc;" horiz-adv-x="921" d="M0 0v922h922v-922h-922z" />
</font>
</defs>
</svg>
